<?xml version="1.0" encoding="UTF-8" standalone="no"?>
<!DOCTYPE svg PUBLIC "-//W3C//DTD SVG 1.1//EN"
 "http://www.w3.org/Graphics/SVG/1.1/DTD/svg11.dtd">
<!-- Generated by graphviz version 2.40.1 (20161225.0304)
 -->
<!-- Title: %3 Pages: 1 -->
<svg width="470pt" height="974pt"
 viewBox="0.00 0.00 470.00 974.00" xmlns="http://www.w3.org/2000/svg" xmlns:xlink="http://www.w3.org/1999/xlink">
<g id="graph0" class="graph" transform="scale(1 1) rotate(0) translate(4 970)">
<title>%3</title>
<polygon fill="#ffffff" stroke="transparent" points="-4,4 -4,-970 466,-970 466,4 -4,4"/>
<text text-anchor="middle" x="231" y="-7.8" font-family="Times,serif" font-size="14.00" fill="#000000">quickstream app</text>
<g id="clust1" class="cluster">
<title>cluster_0</title>
<polygon fill="none" stroke="#000000" points="8,-31 8,-958 454,-958 454,-31 8,-31"/>
<text text-anchor="middle" x="231" y="-942.8" font-family="Times,serif" font-size="14.00" fill="#000000">stream 0</text>
</g>
<g id="clust2" class="cluster">
<title>cluster_1</title>
<polygon fill="none" stroke="#000000" points="257,-852 257,-927 421,-927 421,-852 257,-852"/>
<text text-anchor="middle" x="339" y="-911.8" font-family="Times,serif" font-size="14.00" fill="#000000">stdin</text>
</g>
<g id="clust3" class="cluster">
<title>cluster_2</title>
<polygon fill="none" stroke="#000000" points="16,-581 16,-656 260,-656 260,-581 16,-581"/>
<text text-anchor="middle" x="138" y="-640.8" font-family="Times,serif" font-size="14.00" fill="#000000">copy</text>
</g>
<g id="clust4" class="cluster">
<title>cluster_3</title>
<polygon fill="none" stroke="#000000" points="206,-39 206,-114 290,-114 290,-39 206,-39"/>
<text text-anchor="middle" x="248" y="-98.8" font-family="Times,serif" font-size="14.00" fill="#000000">stdout</text>
</g>
<g id="clust5" class="cluster">
<title>cluster_4</title>
<polygon fill="none" stroke="#000000" points="149,-310 149,-385 313,-385 313,-310 149,-310"/>
<text text-anchor="middle" x="231" y="-369.8" font-family="Times,serif" font-size="14.00" fill="#000000">cow_milker</text>
</g>
<g id="clust6" class="cluster">
<title>cluster_5</title>
<polygon fill="none" stroke="#000000" points="282,-581 282,-656 446,-656 446,-581 282,-581"/>
<text text-anchor="middle" x="364" y="-640.8" font-family="Times,serif" font-size="14.00" fill="#000000">foodog</text>
</g>
<!-- stdin -->
<g id="node1" class="node">
<title>stdin</title>
<ellipse fill="none" stroke="#000000" cx="379" cy="-878" rx="34.394" ry="18"/>
<text text-anchor="middle" x="379" y="-874.3" font-family="Times,serif" font-size="14.00" fill="#000000">input()</text>
</g>
<!-- stdin_output_0 -->
<g id="node2" class="node">
<title>stdin_output_0</title>
<polygon fill="none" stroke="#000000" points="327,-896 265,-896 265,-860 327,-860 327,-896"/>
<text text-anchor="middle" x="296" y="-874.3" font-family="Times,serif" font-size="14.00" fill="#000000">output 0</text>
</g>
<!-- output_0x561d6071caa0 -->
<g id="node11" class="node">
<title>output_0x561d6071caa0</title>
<polygon fill="none" stroke="#ff0000" points="353.3532,-771 262.1171,-771 238.6468,-735 329.8829,-735 353.3532,-771"/>
<text text-anchor="middle" x="296" y="-749.3" font-family="Times,serif" font-size="14.00" fill="#000000">buffer 0</text>
</g>
<!-- stdin_output_0&#45;&gt;output_0x561d6071caa0 -->
<g id="edge1" class="edge">
<title>stdin_output_0&#45;&gt;output_0x561d6071caa0</title>
<path fill="none" stroke="#000000" d="M296,-859.8239C296,-839.2723 296,-805.5472 296,-781.4893"/>
<polygon fill="#000000" stroke="#000000" points="299.5001,-781.198 296,-771.198 292.5001,-781.198 299.5001,-781.198"/>
<text text-anchor="middle" x="299.5" y="-811.8" font-family="Times,serif" font-size="14.00" fill="#000000">0</text>
</g>
<!-- copy -->
<g id="node3" class="node">
<title>copy</title>
<ellipse fill="none" stroke="#000000" cx="218" cy="-607" rx="34.394" ry="18"/>
<text text-anchor="middle" x="218" y="-603.3" font-family="Times,serif" font-size="14.00" fill="#000000">input()</text>
</g>
<!-- copy_output_0 -->
<g id="node4" class="node">
<title>copy_output_0</title>
<polygon fill="none" stroke="#000000" points="86,-625 24,-625 24,-589 86,-589 86,-625"/>
<text text-anchor="middle" x="55" y="-603.3" font-family="Times,serif" font-size="14.00" fill="#000000">output 0</text>
</g>
<!-- output_0x561d6071cc00 -->
<g id="node12" class="node">
<title>output_0x561d6071cc00</title>
<polygon fill="none" stroke="#ff0000" points="130.3532,-229 39.1171,-229 15.6468,-193 106.8829,-193 130.3532,-229"/>
<text text-anchor="middle" x="73" y="-207.3" font-family="Times,serif" font-size="14.00" fill="#000000">buffer 1</text>
</g>
<!-- copy_output_0&#45;&gt;output_0x561d6071cc00 -->
<g id="edge6" class="edge">
<title>copy_output_0&#45;&gt;output_0x561d6071cc00</title>
<path fill="none" stroke="#000000" d="M59.0262,-588.7762C61.4225,-576.3623 64,-559.5188 64,-544.5 64,-544.5 64,-544.5 64,-273.5 64,-262.2359 65.4499,-249.9454 67.1857,-239.267"/>
<polygon fill="#000000" stroke="#000000" points="70.6667,-239.6825 68.9738,-229.2238 63.7751,-238.4554 70.6667,-239.6825"/>
<text text-anchor="middle" x="67.5" y="-415.8" font-family="Times,serif" font-size="14.00" fill="#000000">0</text>
</g>
<!-- copy_output_1 -->
<g id="node5" class="node">
<title>copy_output_1</title>
<polygon fill="none" stroke="#000000" points="166,-625 104,-625 104,-589 166,-589 166,-625"/>
<text text-anchor="middle" x="135" y="-603.3" font-family="Times,serif" font-size="14.00" fill="#000000">output 1</text>
</g>
<!-- output_0x561d6071cc40 -->
<g id="node13" class="node">
<title>output_0x561d6071cc40</title>
<polygon fill="none" stroke="#ff0000" points="222.3532,-500 131.1171,-500 107.6468,-464 198.8829,-464 222.3532,-500"/>
<text text-anchor="middle" x="165" y="-478.3" font-family="Times,serif" font-size="14.00" fill="#000000">buffer 2</text>
</g>
<!-- copy_output_1&#45;&gt;output_0x561d6071cc40 -->
<g id="edge8" class="edge">
<title>copy_output_1&#45;&gt;output_0x561d6071cc40</title>
<path fill="none" stroke="#000000" d="M139.3623,-588.8239C144.3169,-568.1798 152.4617,-534.2431 158.2404,-510.1648"/>
<polygon fill="#000000" stroke="#000000" points="161.702,-510.7387 160.6325,-500.198 154.8953,-509.1051 161.702,-510.7387"/>
<text text-anchor="middle" x="154.5" y="-540.8" font-family="Times,serif" font-size="14.00" fill="#000000">1</text>
</g>
<!-- stdout -->
<g id="node6" class="node">
<title>stdout</title>
<ellipse fill="none" stroke="#000000" cx="248" cy="-65" rx="34.394" ry="18"/>
<text text-anchor="middle" x="248" y="-61.3" font-family="Times,serif" font-size="14.00" fill="#000000">input()</text>
</g>
<!-- cow_milker -->
<g id="node7" class="node">
<title>cow_milker</title>
<ellipse fill="none" stroke="#000000" cx="271" cy="-336" rx="34.394" ry="18"/>
<text text-anchor="middle" x="271" y="-332.3" font-family="Times,serif" font-size="14.00" fill="#000000">input()</text>
</g>
<!-- cow_milker_output_0 -->
<g id="node8" class="node">
<title>cow_milker_output_0</title>
<polygon fill="none" stroke="#000000" points="219,-354 157,-354 157,-318 219,-318 219,-354"/>
<text text-anchor="middle" x="188" y="-332.3" font-family="Times,serif" font-size="14.00" fill="#000000">output 0</text>
</g>
<!-- output_0x561d6071cd30 -->
<g id="node14" class="node">
<title>output_0x561d6071cd30</title>
<polygon fill="none" stroke="#ff0000" points="262.3532,-229 171.1171,-229 147.6468,-193 238.8829,-193 262.3532,-229"/>
<text text-anchor="middle" x="205" y="-207.3" font-family="Times,serif" font-size="14.00" fill="#000000">buffer 3</text>
</g>
<!-- cow_milker_output_0&#45;&gt;output_0x561d6071cd30 -->
<g id="edge10" class="edge">
<title>cow_milker_output_0&#45;&gt;output_0x561d6071cd30</title>
<path fill="none" stroke="#000000" d="M190.4719,-317.8239C193.2796,-297.1798 197.8949,-263.2431 201.1696,-239.1648"/>
<polygon fill="#000000" stroke="#000000" points="204.6455,-239.5785 202.5251,-229.198 197.7093,-238.6351 204.6455,-239.5785"/>
<text text-anchor="middle" x="200.5" y="-269.8" font-family="Times,serif" font-size="14.00" fill="#000000">0</text>
</g>
<!-- foodog -->
<g id="node9" class="node">
<title>foodog</title>
<ellipse fill="none" stroke="#000000" cx="404" cy="-607" rx="34.394" ry="18"/>
<text text-anchor="middle" x="404" y="-603.3" font-family="Times,serif" font-size="14.00" fill="#000000">input()</text>
</g>
<!-- foodog_output_0 -->
<g id="node10" class="node">
<title>foodog_output_0</title>
<polygon fill="none" stroke="#000000" points="352,-625 290,-625 290,-589 352,-589 352,-625"/>
<text text-anchor="middle" x="321" y="-603.3" font-family="Times,serif" font-size="14.00" fill="#000000">output 0</text>
</g>
<!-- output_0x561d6071ce10 -->
<g id="node15" class="node">
<title>output_0x561d6071ce10</title>
<polygon fill="none" stroke="#ff0000" points="394.3532,-229 303.1171,-229 279.6468,-193 370.8829,-193 394.3532,-229"/>
<text text-anchor="middle" x="337" y="-207.3" font-family="Times,serif" font-size="14.00" fill="#000000">buffer 4</text>
</g>
<!-- foodog_output_0&#45;&gt;output_0x561d6071ce10 -->
<g id="edge13" class="edge">
<title>foodog_output_0&#45;&gt;output_0x561d6071ce10</title>
<path fill="none" stroke="#000000" d="M325.0262,-588.7762C327.4225,-576.3623 330,-559.5188 330,-544.5 330,-544.5 330,-544.5 330,-273.5 330,-262.2812 331.1277,-249.9996 332.4778,-239.3157"/>
<polygon fill="#000000" stroke="#000000" points="335.965,-239.6482 333.8685,-229.2629 329.0311,-238.6889 335.965,-239.6482"/>
<text text-anchor="middle" x="333.5" y="-415.8" font-family="Times,serif" font-size="14.00" fill="#000000">0</text>
</g>
<!-- output_0x561d6071caa0&#45;&gt;copy -->
<g id="edge2" class="edge">
<title>output_0x561d6071caa0&#45;&gt;copy</title>
<path fill="none" stroke="#000000" d="M279.0568,-734.7079C274.4812,-729.2496 269.761,-723.0919 266,-717 249.6001,-690.4361 235.9551,-657.2871 227.4578,-634.3602"/>
<polygon fill="#000000" stroke="#000000" points="230.7299,-633.1165 224.0314,-624.9079 224.1489,-635.502 230.7299,-633.1165"/>
<text text-anchor="middle" x="257.5" y="-686.8" font-family="Times,serif" font-size="14.00" fill="#000000">0</text>
</g>
<!-- output_0x561d6071caa0&#45;&gt;cow_milker -->
<g id="edge5" class="edge">
<title>output_0x561d6071caa0&#45;&gt;cow_milker</title>
<path fill="none" stroke="#000000" d="M284.5244,-734.8848C277.9523,-722.7948 271,-706.2769 271,-690.5 271,-690.5 271,-690.5 271,-419.5 271,-401.2434 271,-380.7416 271,-364.6218"/>
<polygon fill="#000000" stroke="#000000" points="274.5001,-364.2434 271,-354.2434 267.5001,-364.2435 274.5001,-364.2434"/>
<text text-anchor="middle" x="274.5" y="-540.8" font-family="Times,serif" font-size="14.00" fill="#000000">0</text>
</g>
<!-- output_0x561d6071caa0&#45;&gt;foodog -->
<g id="edge3" class="edge">
<title>output_0x561d6071caa0&#45;&gt;foodog</title>
<path fill="none" stroke="#000000" d="M309.4599,-734.8042C328.605,-708.9229 363.7716,-661.3829 385.398,-632.1472"/>
<polygon fill="#000000" stroke="#000000" points="388.2449,-634.1839 391.3781,-624.0629 382.6172,-630.0209 388.2449,-634.1839"/>
<text text-anchor="middle" x="350.5" y="-686.8" font-family="Times,serif" font-size="14.00" fill="#000000">0</text>
</g>
<!-- output_0x561d6071caa0&#45;&gt;foodog -->
<g id="edge4" class="edge">
<title>output_0x561d6071caa0&#45;&gt;foodog</title>
<path fill="none" stroke="#000000" d="M320.3703,-734.9966C332.7012,-725.0473 347.2844,-711.9043 358,-698 373.0912,-678.4179 385.4068,-653.1191 393.4839,-634.1685"/>
<polygon fill="#000000" stroke="#000000" points="396.729,-635.4799 397.3136,-624.9012 390.2596,-632.8064 396.729,-635.4799"/>
<text text-anchor="middle" x="371.5" y="-686.8" font-family="Times,serif" font-size="14.00" fill="#000000">1</text>
</g>
<!-- output_0x561d6071cc00&#45;&gt;stdout -->
<g id="edge7" class="edge">
<title>output_0x561d6071cc00&#45;&gt;stdout</title>
<path fill="none" stroke="#000000" d="M94.81,-192.8042C127.0433,-165.9124 187.3041,-115.6378 221.8591,-86.809"/>
<polygon fill="#000000" stroke="#000000" points="224.21,-89.4058 229.6464,-80.3121 219.7256,-84.0308 224.21,-89.4058"/>
<text text-anchor="middle" x="159.5" y="-144.8" font-family="Times,serif" font-size="14.00" fill="#000000">0</text>
</g>
<!-- output_0x561d6071cc40&#45;&gt;cow_milker -->
<g id="edge9" class="edge">
<title>output_0x561d6071cc40&#45;&gt;cow_milker</title>
<path fill="none" stroke="#000000" d="M178.2106,-463.8042C196.9205,-438.034 231.2206,-390.7905 252.4684,-361.5246"/>
<polygon fill="#000000" stroke="#000000" points="255.5689,-363.2114 258.6119,-353.0629 249.9044,-359.0988 255.5689,-363.2114"/>
<text text-anchor="middle" x="218.5" y="-415.8" font-family="Times,serif" font-size="14.00" fill="#000000">1</text>
</g>
<!-- output_0x561d6071cd30&#45;&gt;stdout -->
<g id="edge11" class="edge">
<title>output_0x561d6071cd30&#45;&gt;stdout</title>
<path fill="none" stroke="#000000" d="M207.7542,-192.9636C210.1348,-178.7081 213.9828,-158.3849 219,-141 223.7724,-124.4632 230.5736,-106.4468 236.3901,-92.1075"/>
<polygon fill="#000000" stroke="#000000" points="239.6389,-93.4099 240.2226,-82.8312 233.1693,-90.737 239.6389,-93.4099"/>
<text text-anchor="middle" x="222.5" y="-144.8" font-family="Times,serif" font-size="14.00" fill="#000000">1</text>
</g>
<!-- output_0x561d6071cd30&#45;&gt;stdout -->
<g id="edge12" class="edge">
<title>output_0x561d6071cd30&#45;&gt;stdout</title>
<path fill="none" stroke="#000000" d="M212.5912,-192.8711C216.8716,-182.2447 222.1216,-168.4947 226,-156 232.4849,-135.1081 238.2317,-111.0317 242.2242,-92.8934"/>
<polygon fill="#000000" stroke="#000000" points="245.6777,-93.4822 244.3646,-82.9691 238.835,-92.0064 245.6777,-93.4822"/>
<text text-anchor="middle" x="233.5" y="-144.8" font-family="Times,serif" font-size="14.00" fill="#000000">2</text>
</g>
<!-- output_0x561d6071ce10&#45;&gt;stdout -->
<g id="edge14" class="edge">
<title>output_0x561d6071ce10&#45;&gt;stdout</title>
<path fill="none" stroke="#000000" d="M325.908,-192.8042C310.3506,-167.283 281.9551,-120.7016 264.0798,-91.3781"/>
<polygon fill="#000000" stroke="#000000" points="266.869,-89.2292 258.6754,-82.5124 260.8919,-92.8728 266.869,-89.2292"/>
<text text-anchor="middle" x="305.5" y="-144.8" font-family="Times,serif" font-size="14.00" fill="#000000">3</text>
</g>
<!-- output_0x561d6071ce10&#45;&gt;stdout -->
<g id="edge15" class="edge">
<title>output_0x561d6071ce10&#45;&gt;stdout</title>
<path fill="none" stroke="#000000" d="M332.8245,-192.9521C328.9779,-178.327 322.4298,-157.5108 313,-141 301.8843,-121.5373 285.4504,-102.3776 271.8886,-88.1644"/>
<polygon fill="#000000" stroke="#000000" points="274.193,-85.5146 264.7017,-80.8065 269.1854,-90.4059 274.193,-85.5146"/>
<text text-anchor="middle" x="323.5" y="-144.8" font-family="Times,serif" font-size="14.00" fill="#000000">4</text>
</g>
</g>
</svg>
