<?xml version="1.0" encoding="UTF-8" standalone="no"?>
<!DOCTYPE svg PUBLIC "-//W3C//DTD SVG 1.1//EN"
 "http://www.w3.org/Graphics/SVG/1.1/DTD/svg11.dtd">
<!-- Generated by graphviz version 2.38.0 (20140413.2041)
 -->
<!-- Title: %3 Pages: 1 -->
<svg width="180pt" height="355pt"
 viewBox="0.00 0.00 179.99 355.00" xmlns="http://www.w3.org/2000/svg" xmlns:xlink="http://www.w3.org/1999/xlink">
<g id="graph0" class="graph" transform="scale(1 1) rotate(0) translate(4 351)">
<title>%3</title>
<polygon fill="white" stroke="none" points="-4,4 -4,-351 175.993,-351 175.993,4 -4,4"/>
<text text-anchor="middle" x="85.9965" y="-7.8" font-family="Times,serif" font-size="14.00">faststream states</text>
<!-- paused -->
<g id="node1" class="node"><title>paused</title>
<ellipse fill="none" stroke="black" cx="119.047" cy="-329" rx="35.194" ry="18"/>
<text text-anchor="middle" x="119.047" y="-325.3" font-family="Times,serif" font-size="14.00">paused</text>
</g>
<!-- starting -->
<g id="node2" class="node"><title>starting</title>
<ellipse fill="none" stroke="black" cx="37.0467" cy="-257" rx="37.0935" ry="18"/>
<text text-anchor="middle" x="37.0467" y="-253.3" font-family="Times,serif" font-size="14.00">starting</text>
</g>
<!-- paused&#45;&gt;starting -->
<g id="edge1" class="edge"><title>paused&#45;&gt;starting</title>
<path fill="none" stroke="black" d="M101.657,-313.155C90.3185,-303.476 75.3263,-290.678 62.6381,-279.846"/>
<polygon fill="black" stroke="black" points="64.5725,-276.896 54.6944,-273.065 60.0277,-282.22 64.5725,-276.896"/>
</g>
<!-- exit -->
<g id="node3" class="node"><title>exit</title>
<ellipse fill="none" stroke="black" cx="119.047" cy="-257" rx="27" ry="18"/>
<text text-anchor="middle" x="119.047" y="-253.3" font-family="Times,serif" font-size="14.00">exit</text>
</g>
<!-- paused&#45;&gt;exit -->
<g id="edge2" class="edge"><title>paused&#45;&gt;exit</title>
<path fill="none" stroke="black" d="M119.047,-310.697C119.047,-302.983 119.047,-293.712 119.047,-285.112"/>
<polygon fill="black" stroke="black" points="122.547,-285.104 119.047,-275.104 115.547,-285.104 122.547,-285.104"/>
</g>
<!-- running -->
<g id="node4" class="node"><title>running</title>
<ellipse fill="none" stroke="black" cx="55.0467" cy="-185" rx="38.1938" ry="18"/>
<text text-anchor="middle" x="55.0467" y="-181.3" font-family="Times,serif" font-size="14.00">running</text>
</g>
<!-- starting&#45;&gt;running -->
<g id="edge3" class="edge"><title>starting&#45;&gt;running</title>
<path fill="none" stroke="black" d="M41.404,-239.055C43.4082,-231.261 45.8354,-221.822 48.0836,-213.079"/>
<polygon fill="black" stroke="black" points="51.5037,-213.832 50.6045,-203.275 44.7243,-212.089 51.5037,-213.832"/>
</g>
<!-- flushing -->
<g id="node5" class="node"><title>flushing</title>
<ellipse fill="none" stroke="black" cx="89.0467" cy="-113" rx="39.7935" ry="18"/>
<text text-anchor="middle" x="89.0467" y="-109.3" font-family="Times,serif" font-size="14.00">flushing</text>
</g>
<!-- running&#45;&gt;flushing -->
<g id="edge4" class="edge"><title>running&#45;&gt;flushing</title>
<path fill="none" stroke="black" d="M63.2772,-167.055C67.2446,-158.887 72.0897,-148.912 76.5034,-139.824"/>
<polygon fill="black" stroke="black" points="79.6712,-141.313 80.8921,-130.789 73.3747,-138.255 79.6712,-141.313"/>
</g>
<!-- stopping -->
<g id="node6" class="node"><title>stopping</title>
<ellipse fill="none" stroke="black" cx="131.047" cy="-41" rx="40.8928" ry="18"/>
<text text-anchor="middle" x="131.047" y="-37.3" font-family="Times,serif" font-size="14.00">stopping</text>
</g>
<!-- flushing&#45;&gt;stopping -->
<g id="edge5" class="edge"><title>flushing&#45;&gt;stopping</title>
<path fill="none" stroke="black" d="M99.0001,-95.411C104.074,-86.9549 110.35,-76.4944 116,-67.0783"/>
<polygon fill="black" stroke="black" points="119.021,-68.8456 121.165,-58.4699 113.019,-65.2441 119.021,-68.8456"/>
</g>
<!-- stopping&#45;&gt;paused -->
<g id="edge6" class="edge"><title>stopping&#45;&gt;paused</title>
<path fill="none" stroke="black" d="M137.221,-58.8246C150.575,-97.7922 179.071,-196.873 155.047,-275 151.859,-285.366 145.878,-295.524 139.693,-304.129"/>
<polygon fill="black" stroke="black" points="136.839,-302.099 133.536,-312.166 142.396,-306.356 136.839,-302.099"/>
</g>
</g>
</svg>
