<?xml version="1.0" encoding="UTF-8" standalone="no"?>
<!DOCTYPE svg PUBLIC "-//W3C//DTD SVG 1.1//EN"
 "http://www.w3.org/Graphics/SVG/1.1/DTD/svg11.dtd">
<!-- Generated by graphviz version 2.38.0 (20140413.2041)
 -->
<!-- Title: %3 Pages: 1 -->
<svg width="154pt" height="355pt"
 viewBox="0.00 0.00 153.67 355.00" xmlns="http://www.w3.org/2000/svg" xmlns:xlink="http://www.w3.org/1999/xlink">
<g id="graph0" class="graph" transform="scale(1 1) rotate(0) translate(4 351)">
<title>%3</title>
<polygon fill="white" stroke="none" points="-4,4 -4,-351 149.669,-351 149.669,4 -4,4"/>
<text text-anchor="middle" x="72.8346" y="-7.8" font-family="Times,serif" font-size="14.00">faststream states</text>
<!-- pause -->
<g id="node1" class="node"><title>pause</title>
<ellipse fill="none" stroke="black" cx="99" cy="-329" rx="30.5947" ry="18"/>
<text text-anchor="middle" x="99" y="-325.3" font-family="Times,serif" font-size="14.00">pause</text>
</g>
<!-- start -->
<g id="node2" class="node"><title>start</title>
<ellipse fill="none" stroke="black" cx="27" cy="-257" rx="27" ry="18"/>
<text text-anchor="middle" x="27" y="-253.3" font-family="Times,serif" font-size="14.00">start</text>
</g>
<!-- pause&#45;&gt;start -->
<g id="edge1" class="edge"><title>pause&#45;&gt;start</title>
<path fill="none" stroke="black" d="M83.7307,-313.155C73.6688,-303.372 60.3296,-290.404 49.1139,-279.5"/>
<polygon fill="black" stroke="black" points="51.3647,-276.806 41.7549,-272.345 46.4851,-281.825 51.3647,-276.806"/>
</g>
<!-- exit -->
<g id="node3" class="node"><title>exit</title>
<ellipse fill="none" stroke="black" cx="99" cy="-257" rx="27" ry="18"/>
<text text-anchor="middle" x="99" y="-253.3" font-family="Times,serif" font-size="14.00">exit</text>
</g>
<!-- pause&#45;&gt;exit -->
<g id="edge2" class="edge"><title>pause&#45;&gt;exit</title>
<path fill="none" stroke="black" d="M99,-310.697C99,-302.983 99,-293.712 99,-285.112"/>
<polygon fill="black" stroke="black" points="102.5,-285.104 99,-275.104 95.5001,-285.104 102.5,-285.104"/>
</g>
<!-- flow -->
<g id="node4" class="node"><title>flow</title>
<ellipse fill="none" stroke="black" cx="45" cy="-185" rx="27" ry="18"/>
<text text-anchor="middle" x="45" y="-181.3" font-family="Times,serif" font-size="14.00">flow</text>
</g>
<!-- start&#45;&gt;flow -->
<g id="edge3" class="edge"><title>start&#45;&gt;flow</title>
<path fill="none" stroke="black" d="M31.3573,-239.055C33.3914,-231.145 35.8612,-221.54 38.1374,-212.688"/>
<polygon fill="black" stroke="black" points="41.5821,-213.346 40.6828,-202.789 34.8026,-211.602 41.5821,-213.346"/>
</g>
<!-- flush -->
<g id="node5" class="node"><title>flush</title>
<ellipse fill="none" stroke="black" cx="80" cy="-113" rx="28.6953" ry="18"/>
<text text-anchor="middle" x="80" y="-109.3" font-family="Times,serif" font-size="14.00">flush</text>
</g>
<!-- flow&#45;&gt;flush -->
<g id="edge4" class="edge"><title>flow&#45;&gt;flush</title>
<path fill="none" stroke="black" d="M53.1177,-167.765C57.2978,-159.404 62.492,-149.016 67.197,-139.606"/>
<polygon fill="black" stroke="black" points="70.3416,-141.143 71.6833,-130.633 64.0806,-138.012 70.3416,-141.143"/>
</g>
<!-- stop -->
<g id="node6" class="node"><title>stop</title>
<ellipse fill="none" stroke="black" cx="117" cy="-41" rx="27" ry="18"/>
<text text-anchor="middle" x="117" y="-37.3" font-family="Times,serif" font-size="14.00">stop</text>
</g>
<!-- flush&#45;&gt;stop -->
<g id="edge5" class="edge"><title>flush&#45;&gt;stop</title>
<path fill="none" stroke="black" d="M88.5815,-95.7646C93.0646,-87.2831 98.651,-76.7144 103.681,-67.1974"/>
<polygon fill="black" stroke="black" points="106.886,-68.6239 108.465,-58.1473 100.698,-65.3527 106.886,-68.6239"/>
</g>
<!-- stop&#45;&gt;pause -->
<g id="edge6" class="edge"><title>stop&#45;&gt;pause</title>
<path fill="none" stroke="black" d="M122.455,-58.8495C134.203,-97.8694 158.969,-197.053 135,-275 131.763,-285.526 125.646,-295.837 119.36,-304.525"/>
<polygon fill="black" stroke="black" points="116.453,-302.563 113.119,-312.62 121.997,-306.838 116.453,-302.563"/>
</g>
</g>
</svg>
