<?xml version="1.0" encoding="UTF-8" standalone="no"?>
<!DOCTYPE svg PUBLIC "-//W3C//DTD SVG 1.1//EN"
 "http://www.w3.org/Graphics/SVG/1.1/DTD/svg11.dtd">
<!-- Generated by graphviz version 2.40.1 (20161225.0304)
 -->
<!-- Title: %3 Pages: 1 -->
<svg width="922pt" height="972pt"
 viewBox="0.00 0.00 922.00 972.00" xmlns="http://www.w3.org/2000/svg" xmlns:xlink="http://www.w3.org/1999/xlink">
<g id="graph0" class="graph" transform="scale(1 1) rotate(0) translate(4 968)">
<title>%3</title>
<polygon fill="#ffffff" stroke="transparent" points="-4,4 -4,-968 918,-968 918,4 -4,4"/>
<text text-anchor="middle" x="457" y="-7.8" font-family="Times,serif" font-size="14.00" fill="#000000">quickstream job control</text>
<g id="clust1" class="cluster">
<title>cluster_7</title>
<polygon fill="none" stroke="#000000" points="8,-552 8,-956 472,-956 472,-552 8,-552"/>
<text text-anchor="middle" x="240" y="-940.8" font-family="Times,serif" font-size="14.00" fill="#000000">normal job flow</text>
</g>
<g id="clust2" class="cluster">
<title>cluster_0</title>
<polygon fill="none" stroke="#ff0000" points="320,-663 320,-925 464,-925 464,-663 320,-663"/>
<text text-anchor="middle" x="392" y="-909.8" font-family="Times,serif" font-size="14.00" fill="#000000">filter_1</text>
</g>
<g id="clust3" class="cluster">
<title>cluster_1</title>
<polygon fill="none" stroke="#00ff00" points="168,-663 168,-925 312,-925 312,-663 168,-663"/>
<text text-anchor="middle" x="240" y="-909.8" font-family="Times,serif" font-size="14.00" fill="#000000">filter_2</text>
</g>
<g id="clust4" class="cluster">
<title>cluster_2</title>
<polygon fill="none" stroke="#0000ff" points="16,-663 16,-925 160,-925 160,-663 16,-663"/>
<text text-anchor="middle" x="88" y="-909.8" font-family="Times,serif" font-size="14.00" fill="#000000">filter_3</text>
</g>
<g id="clust5" class="cluster">
<title>cluster_8</title>
<polygon fill="none" stroke="#000000" points="480,-31 480,-956 906,-956 906,-31 480,-31"/>
<text text-anchor="middle" x="693" y="-940.8" font-family="Times,serif" font-size="14.00" fill="#000000">job lists</text>
</g>
<g id="clust6" class="cluster">
<title>cluster_3</title>
<polygon fill="none" stroke="#000000" points="750,-240 750,-925 898,-925 898,-240 750,-240"/>
<text text-anchor="middle" x="824" y="-909.8" font-family="Times,serif" font-size="14.00" fill="#000000">working queue</text>
</g>
<g id="clust7" class="cluster">
<title>cluster_4</title>
<polygon fill="none" stroke="#000000" points="644,-39 644,-925 742,-925 742,-39 644,-39"/>
<text text-anchor="middle" x="693" y="-909.8" font-family="Times,serif" font-size="14.00" fill="#000000">unused stack</text>
</g>
<g id="clust8" class="cluster">
<title>cluster_5</title>
<polygon fill="none" stroke="#000000" points="488,-39 488,-925 636,-925 636,-39 488,-39"/>
<text text-anchor="middle" x="562" y="-909.8" font-family="Times,serif" font-size="14.00" fill="#000000">stream queue</text>
</g>
<!-- filter_1_unused -->
<g id="node1" class="node">
<title>filter_1_unused</title>
<ellipse fill="none" stroke="#ff0000" cx="384" cy="-689" rx="55.7903" ry="18"/>
<text text-anchor="middle" x="384" y="-685.3" font-family="Times,serif" font-size="14.00" fill="#000000">unused stack</text>
</g>
<!-- stream_queue -->
<g id="node7" class="node">
<title>stream_queue</title>
<ellipse fill="none" stroke="#000000" cx="285" cy="-578" rx="57.6901" ry="18"/>
<text text-anchor="middle" x="285" y="-574.3" font-family="Times,serif" font-size="14.00" fill="#000000">stream queue</text>
</g>
<!-- filter_1_unused&#45;&gt;stream_queue -->
<g id="edge1" class="edge">
<title>filter_1_unused&#45;&gt;stream_queue</title>
<path fill="none" stroke="#ff0000" d="M368.5313,-671.6563C352.1358,-653.2735 326.0862,-624.0663 307.4366,-603.1562"/>
<polygon fill="#ff0000" stroke="#ff0000" points="309.9551,-600.7216 300.6868,-595.5883 304.731,-605.3809 309.9551,-600.7216"/>
</g>
<!-- filter_1_working -->
<g id="node2" class="node">
<title>filter_1_working</title>
<ellipse fill="none" stroke="#ff0000" cx="392" cy="-876" rx="63.8893" ry="18"/>
<text text-anchor="middle" x="392" y="-872.3" font-family="Times,serif" font-size="14.00" fill="#000000">working queue</text>
</g>
<!-- filter_1_working&#45;&gt;filter_1_unused -->
<g id="edge3" class="edge">
<title>filter_1_working&#45;&gt;filter_1_unused</title>
<path fill="none" stroke="#ff0000" d="M390,-857.524C389,-846.7403 388,-832.8653 388,-820.5 388,-820.5 388,-820.5 388,-744.5 388,-735.709 387.4946,-726.155 386.843,-717.4912"/>
<polygon fill="#ff0000" stroke="#ff0000" points="390.3265,-717.1472 386,-707.476 383.3512,-717.7344 390.3265,-717.1472"/>
</g>
<!-- filter_2_unused -->
<g id="node3" class="node">
<title>filter_2_unused</title>
<ellipse fill="none" stroke="#00ff00" cx="234" cy="-689" rx="55.7903" ry="18"/>
<text text-anchor="middle" x="234" y="-685.3" font-family="Times,serif" font-size="14.00" fill="#000000">unused stack</text>
</g>
<!-- filter_2_unused&#45;&gt;stream_queue -->
<g id="edge4" class="edge">
<title>filter_2_unused&#45;&gt;stream_queue</title>
<path fill="none" stroke="#00ff00" d="M242.194,-671.1659C250.3614,-653.3899 263.0134,-625.8531 272.4474,-605.3203"/>
<polygon fill="#00ff00" stroke="#00ff00" points="275.6622,-606.7066 276.6569,-596.1586 269.3014,-603.7841 275.6622,-606.7066"/>
</g>
<!-- filter_2_working -->
<g id="node4" class="node">
<title>filter_2_working</title>
<ellipse fill="none" stroke="#00ff00" cx="240" cy="-876" rx="63.8893" ry="18"/>
<text text-anchor="middle" x="240" y="-872.3" font-family="Times,serif" font-size="14.00" fill="#000000">working queue</text>
</g>
<!-- filter_2_working&#45;&gt;filter_2_unused -->
<g id="edge6" class="edge">
<title>filter_2_working&#45;&gt;filter_2_unused</title>
<path fill="none" stroke="#00ff00" d="M238.5,-857.5135C237.75,-846.7263 237,-832.8513 237,-820.5 237,-820.5 237,-820.5 237,-744.5 237,-735.719 236.6209,-726.1678 236.1323,-717.5036"/>
<polygon fill="#00ff00" stroke="#00ff00" points="239.6231,-717.2461 235.5,-707.4865 232.637,-717.6871 239.6231,-717.2461"/>
</g>
<!-- filter_3_unused -->
<g id="node5" class="node">
<title>filter_3_unused</title>
<ellipse fill="none" stroke="#0000ff" cx="84" cy="-689" rx="55.7903" ry="18"/>
<text text-anchor="middle" x="84" y="-685.3" font-family="Times,serif" font-size="14.00" fill="#000000">unused stack</text>
</g>
<!-- filter_3_unused&#45;&gt;stream_queue -->
<g id="edge7" class="edge">
<title>filter_3_unused&#45;&gt;stream_queue</title>
<path fill="none" stroke="#0000ff" d="M96.0972,-671.17C108.6344,-654.0397 129.769,-628.6578 154,-614 174.656,-601.5048 199.7357,-593.2464 222.3998,-587.8344"/>
<polygon fill="#0000ff" stroke="#0000ff" points="223.2911,-591.2215 232.2805,-585.6142 221.7565,-584.3918 223.2911,-591.2215"/>
</g>
<!-- filter_3_working -->
<g id="node6" class="node">
<title>filter_3_working</title>
<ellipse fill="none" stroke="#0000ff" cx="88" cy="-876" rx="63.8893" ry="18"/>
<text text-anchor="middle" x="88" y="-872.3" font-family="Times,serif" font-size="14.00" fill="#000000">working queue</text>
</g>
<!-- filter_3_working&#45;&gt;filter_3_unused -->
<g id="edge9" class="edge">
<title>filter_3_working&#45;&gt;filter_3_unused</title>
<path fill="none" stroke="#0000ff" d="M87,-857.506C86.5,-846.7163 86,-832.8413 86,-820.5 86,-820.5 86,-820.5 86,-744.5 86,-735.7261 85.7473,-726.177 85.4215,-717.5125"/>
<polygon fill="#0000ff" stroke="#0000ff" points="88.9174,-717.338 85,-707.494 81.9236,-717.6323 88.9174,-717.338"/>
</g>
<!-- stream_queue&#45;&gt;filter_1_working -->
<g id="edge2" class="edge">
<title>stream_queue&#45;&gt;filter_1_working</title>
<path fill="none" stroke="#ff0000" d="M339.1009,-584.7112C390.179,-592.6043 459,-607.9752 459,-633.5 459,-820.5 459,-820.5 459,-820.5 459,-835.2268 449.2814,-846.7864 437.247,-855.4552"/>
<polygon fill="#ff0000" stroke="#ff0000" points="435.1504,-852.6423 428.6365,-860.9981 438.9394,-858.5282 435.1504,-852.6423"/>
</g>
<!-- stream_queue&#45;&gt;filter_2_working -->
<g id="edge5" class="edge">
<title>stream_queue&#45;&gt;filter_2_working</title>
<path fill="none" stroke="#00ff00" d="M297,-595.6722C303,-606.1879 309,-620.0629 309,-633.5 309,-820.5 309,-820.5 309,-820.5 309,-835.6332 298.7979,-847.3344 286.2395,-856.0053"/>
<polygon fill="#00ff00" stroke="#00ff00" points="284.3917,-853.0328 277.7302,-861.2714 288.0754,-858.9852 284.3917,-853.0328"/>
</g>
<!-- stream_queue&#45;&gt;filter_3_working -->
<g id="edge8" class="edge">
<title>stream_queue&#45;&gt;filter_3_working</title>
<path fill="none" stroke="#0000ff" d="M239.1547,-589.1425C203.1282,-599.2803 159,-615.3934 159,-633.5 159,-820.5 159,-820.5 159,-820.5 159,-835.901 148.5022,-847.664 135.5798,-856.3097"/>
<polygon fill="#0000ff" stroke="#0000ff" points="133.6085,-853.4104 126.8238,-861.5479 137.2023,-859.4176 133.6085,-853.4104"/>
</g>
<!-- First -->
<g id="node8" class="node">
<title>First</title>
<polygon fill="none" stroke="#000000" points="862.5418,-876 847.2709,-894 816.7291,-894 801.4582,-876 816.7291,-858 847.2709,-858 862.5418,-876"/>
<text text-anchor="middle" x="832" y="-872.3" font-family="Times,serif" font-size="14.00" fill="#000000">First</text>
</g>
<!-- job0 -->
<g id="node10" class="node">
<title>job0</title>
<ellipse fill="none" stroke="#000000" cx="832" cy="-689" rx="27" ry="18"/>
<text text-anchor="middle" x="832" y="-685.3" font-family="Times,serif" font-size="14.00" fill="#000000">job0</text>
</g>
<!-- First&#45;&gt;job0 -->
<g id="edge10" class="edge">
<title>First&#45;&gt;job0</title>
<path fill="none" stroke="#000000" d="M832,-857.5C832,-846.7083 832,-832.8333 832,-820.5 832,-820.5 832,-820.5 832,-744.5 832,-735.7318 832,-726.1843 832,-717.5196"/>
<polygon fill="#000000" stroke="#000000" points="835.5001,-717.5 832,-707.5 828.5001,-717.5 835.5001,-717.5"/>
</g>
<!-- Last -->
<g id="node9" class="node">
<title>Last</title>
<polygon fill="none" stroke="#000000" points="818.0391,-467 803.0196,-485 772.9804,-485 757.9609,-467 772.9804,-449 803.0196,-449 818.0391,-467"/>
<text text-anchor="middle" x="788" y="-463.3" font-family="Times,serif" font-size="14.00" fill="#000000">Last</text>
</g>
<!-- job2 -->
<g id="node11" class="node">
<title>job2</title>
<ellipse fill="none" stroke="#000000" cx="805" cy="-266" rx="27" ry="18"/>
<text text-anchor="middle" x="805" y="-262.3" font-family="Times,serif" font-size="14.00" fill="#000000">job2</text>
</g>
<!-- Last&#45;&gt;job2 -->
<g id="edge11" class="edge">
<title>Last&#45;&gt;job2</title>
<path fill="none" stroke="#000000" d="M777.8828,-448.8333C772.9222,-438.2679 768,-424.5073 768,-411.5 768,-411.5 768,-411.5 768,-321.5 768,-309.3189 774.2467,-297.778 781.6067,-288.4076"/>
<polygon fill="#000000" stroke="#000000" points="784.323,-290.6176 788.2321,-280.7702 779.0353,-286.0305 784.323,-290.6176"/>
</g>
<!-- job1 -->
<g id="node12" class="node">
<title>job1</title>
<ellipse fill="none" stroke="#000000" cx="863" cy="-467" rx="27" ry="18"/>
<text text-anchor="middle" x="863" y="-463.3" font-family="Times,serif" font-size="14.00" fill="#000000">job1</text>
</g>
<!-- job0&#45;&gt;job1 -->
<g id="edge12" class="edge">
<title>job0&#45;&gt;job1</title>
<path fill="none" stroke="#000000" d="M818.9837,-673.0529C811.6716,-662.4899 804,-647.9616 804,-633.5 804,-633.5 804,-633.5 804,-522.5 804,-505.2643 817.5234,-491.8109 831.6214,-482.4688"/>
<polygon fill="#000000" stroke="#000000" points="833.6115,-485.3556 840.3578,-477.1863 829.9895,-479.3655 833.6115,-485.3556"/>
<text text-anchor="middle" x="816" y="-574.3" font-family="Times,serif" font-size="14.00" fill="#000000">next</text>
</g>
<!-- job2&#45;&gt;job1 -->
<g id="edge15" class="edge">
<title>job2&#45;&gt;job1</title>
<path fill="none" stroke="#000000" d="M827.6834,-275.9014C844.6744,-285.0248 865,-300.3573 865,-321.5 865,-411.5 865,-411.5 865,-411.5 865,-420.411 864.7393,-430.1216 864.4062,-438.893"/>
<polygon fill="#000000" stroke="#000000" points="860.9041,-438.87 863.9766,-449.0095 867.8978,-439.167 860.9041,-438.87"/>
<text text-anchor="middle" x="877.5" y="-362.8" font-family="Times,serif" font-size="14.00" fill="#000000">prev</text>
</g>
<!-- job1&#45;&gt;job0 -->
<g id="edge14" class="edge">
<title>job1&#45;&gt;job0</title>
<path fill="none" stroke="#000000" d="M863.5,-485.4985C863.75,-496.2897 864,-510.1647 864,-522.5 864,-633.5 864,-633.5 864,-633.5 864,-644.7943 858.965,-655.8611 852.8893,-665.1038"/>
<polygon fill="#000000" stroke="#000000" points="849.9376,-663.2115 846.8758,-673.3543 855.5945,-667.3346 849.9376,-663.2115"/>
<text text-anchor="middle" x="876.5" y="-574.3" font-family="Times,serif" font-size="14.00" fill="#000000">prev</text>
</g>
<!-- job1&#45;&gt;job2 -->
<g id="edge13" class="edge">
<title>job1&#45;&gt;job2</title>
<path fill="none" stroke="#000000" d="M840.7416,-456.7142C824.3853,-447.4533 805,-432.1265 805,-411.5 805,-411.5 805,-411.5 805,-321.5 805,-312.7318 805,-303.1843 805,-294.5196"/>
<polygon fill="#000000" stroke="#000000" points="808.5001,-294.5 805,-284.5 801.5001,-294.5 808.5001,-294.5"/>
<text text-anchor="middle" x="817" y="-362.8" font-family="Times,serif" font-size="14.00" fill="#000000">next</text>
</g>
<!-- unused -->
<g id="node13" class="node">
<title>unused</title>
<polygon fill="none" stroke="#000000" points="734.055,-876 713.5275,-894 672.4725,-894 651.945,-876 672.4725,-858 713.5275,-858 734.055,-876"/>
<text text-anchor="middle" x="693" y="-872.3" font-family="Times,serif" font-size="14.00" fill="#000000">unused</text>
</g>
<!-- ujob0 -->
<g id="node14" class="node">
<title>ujob0</title>
<ellipse fill="none" stroke="#000000" cx="693" cy="-689" rx="27" ry="18"/>
<text text-anchor="middle" x="693" y="-685.3" font-family="Times,serif" font-size="14.00" fill="#000000">job0</text>
</g>
<!-- unused&#45;&gt;ujob0 -->
<g id="edge16" class="edge">
<title>unused&#45;&gt;ujob0</title>
<path fill="none" stroke="#000000" d="M693,-857.5C693,-846.7083 693,-832.8333 693,-820.5 693,-820.5 693,-820.5 693,-744.5 693,-735.7318 693,-726.1843 693,-717.5196"/>
<polygon fill="#000000" stroke="#000000" points="696.5001,-717.5 693,-707.5 689.5001,-717.5 696.5001,-717.5"/>
</g>
<!-- ujob1 -->
<g id="node15" class="node">
<title>ujob1</title>
<ellipse fill="none" stroke="#000000" cx="693" cy="-467" rx="27" ry="18"/>
<text text-anchor="middle" x="693" y="-463.3" font-family="Times,serif" font-size="14.00" fill="#000000">job1</text>
</g>
<!-- ujob0&#45;&gt;ujob1 -->
<g id="edge17" class="edge">
<title>ujob0&#45;&gt;ujob1</title>
<path fill="none" stroke="#000000" d="M693,-670.5C693,-659.7083 693,-645.8333 693,-633.5 693,-633.5 693,-633.5 693,-522.5 693,-513.7318 693,-504.1843 693,-495.5196"/>
<polygon fill="#000000" stroke="#000000" points="696.5001,-495.5 693,-485.5 689.5001,-495.5 696.5001,-495.5"/>
<text text-anchor="middle" x="705" y="-574.3" font-family="Times,serif" font-size="14.00" fill="#000000">next</text>
</g>
<!-- ujob2 -->
<g id="node16" class="node">
<title>ujob2</title>
<ellipse fill="none" stroke="#000000" cx="693" cy="-266" rx="27" ry="18"/>
<text text-anchor="middle" x="693" y="-262.3" font-family="Times,serif" font-size="14.00" fill="#000000">job2</text>
</g>
<!-- ujob1&#45;&gt;ujob2 -->
<g id="edge18" class="edge">
<title>ujob1&#45;&gt;ujob2</title>
<path fill="none" stroke="#000000" d="M693,-448.5C693,-437.7083 693,-423.8333 693,-411.5 693,-411.5 693,-411.5 693,-321.5 693,-312.7318 693,-303.1843 693,-294.5196"/>
<polygon fill="#000000" stroke="#000000" points="696.5001,-294.5 693,-284.5 689.5001,-294.5 696.5001,-294.5"/>
<text text-anchor="middle" x="705" y="-362.8" font-family="Times,serif" font-size="14.00" fill="#000000">next</text>
</g>
<!-- ujob3 -->
<g id="node17" class="node">
<title>ujob3</title>
<ellipse fill="none" stroke="#000000" cx="693" cy="-65" rx="27" ry="18"/>
<text text-anchor="middle" x="693" y="-61.3" font-family="Times,serif" font-size="14.00" fill="#000000">job3</text>
</g>
<!-- ujob2&#45;&gt;ujob3 -->
<g id="edge19" class="edge">
<title>ujob2&#45;&gt;ujob3</title>
<path fill="none" stroke="#000000" d="M693,-247.5C693,-236.7083 693,-222.8333 693,-210.5 693,-210.5 693,-210.5 693,-120.5 693,-111.7318 693,-102.1843 693,-93.5196"/>
<polygon fill="#000000" stroke="#000000" points="696.5001,-93.5 693,-83.5 689.5001,-93.5 696.5001,-93.5"/>
<text text-anchor="middle" x="705" y="-161.8" font-family="Times,serif" font-size="14.00" fill="#000000">next</text>
</g>
<!-- sFirst -->
<g id="node18" class="node">
<title>sFirst</title>
<polygon fill="none" stroke="#000000" points="627.5418,-876 612.2709,-894 581.7291,-894 566.4582,-876 581.7291,-858 612.2709,-858 627.5418,-876"/>
<text text-anchor="middle" x="597" y="-872.3" font-family="Times,serif" font-size="14.00" fill="#000000">First</text>
</g>
<!-- sjob0 -->
<g id="node20" class="node">
<title>sjob0</title>
<ellipse fill="none" stroke="#000000" cx="599" cy="-689" rx="27" ry="18"/>
<text text-anchor="middle" x="599" y="-685.3" font-family="Times,serif" font-size="14.00" fill="#000000">job0</text>
</g>
<!-- sFirst&#45;&gt;sjob0 -->
<g id="edge20" class="edge">
<title>sFirst&#45;&gt;sjob0</title>
<path fill="none" stroke="#000000" d="M597,-857.5C597,-846.7083 597,-832.8333 597,-820.5 597,-820.5 597,-820.5 597,-744.5 597,-735.589 597.2607,-725.8784 597.5938,-717.107"/>
<polygon fill="#000000" stroke="#000000" points="601.0959,-717.13 598.0234,-706.9905 594.1022,-716.833 601.0959,-717.13"/>
</g>
<!-- sLast -->
<g id="node19" class="node">
<title>sLast</title>
<polygon fill="none" stroke="#000000" points="556.0391,-266 541.0196,-284 510.9804,-284 495.9609,-266 510.9804,-248 541.0196,-248 556.0391,-266"/>
<text text-anchor="middle" x="526" y="-262.3" font-family="Times,serif" font-size="14.00" fill="#000000">Last</text>
</g>
<!-- sjob3 -->
<g id="node23" class="node">
<title>sjob3</title>
<ellipse fill="none" stroke="#000000" cx="563" cy="-65" rx="27" ry="18"/>
<text text-anchor="middle" x="563" y="-61.3" font-family="Times,serif" font-size="14.00" fill="#000000">job3</text>
</g>
<!-- sLast&#45;&gt;sjob3 -->
<g id="edge21" class="edge">
<title>sLast&#45;&gt;sjob3</title>
<path fill="none" stroke="#000000" d="M530.5,-247.6208C532.75,-236.8694 535,-222.9944 535,-210.5 535,-210.5 535,-210.5 535,-120.5 535,-109.6538 539.3153,-98.7701 544.5577,-89.5498"/>
<polygon fill="#000000" stroke="#000000" points="547.6092,-91.2724 549.9837,-80.9471 541.6885,-87.5381 547.6092,-91.2724"/>
</g>
<!-- sjob1 -->
<g id="node21" class="node">
<title>sjob1</title>
<ellipse fill="none" stroke="#000000" cx="600" cy="-467" rx="27" ry="18"/>
<text text-anchor="middle" x="600" y="-463.3" font-family="Times,serif" font-size="14.00" fill="#000000">job1</text>
</g>
<!-- sjob0&#45;&gt;sjob1 -->
<g id="edge22" class="edge">
<title>sjob0&#45;&gt;sjob1</title>
<path fill="none" stroke="#000000" d="M599,-670.5C599,-659.7083 599,-645.8333 599,-633.5 599,-633.5 599,-633.5 599,-522.5 599,-513.7303 599.1264,-504.1825 599.2892,-495.5178"/>
<polygon fill="#000000" stroke="#000000" points="602.7888,-495.5699 599.5,-485.4985 595.7904,-495.4226 602.7888,-495.5699"/>
<text text-anchor="middle" x="611" y="-574.3" font-family="Times,serif" font-size="14.00" fill="#000000">next</text>
</g>
<!-- sjob2 -->
<g id="node22" class="node">
<title>sjob2</title>
<ellipse fill="none" stroke="#000000" cx="601" cy="-266" rx="27" ry="18"/>
<text text-anchor="middle" x="601" y="-262.3" font-family="Times,serif" font-size="14.00" fill="#000000">job2</text>
</g>
<!-- sjob1&#45;&gt;sjob2 -->
<g id="edge23" class="edge">
<title>sjob1&#45;&gt;sjob2</title>
<path fill="none" stroke="#000000" d="M600,-448.5C600,-437.7083 600,-423.8333 600,-411.5 600,-411.5 600,-411.5 600,-321.5 600,-312.7303 600.1264,-303.1825 600.2892,-294.5178"/>
<polygon fill="#000000" stroke="#000000" points="603.7888,-294.5699 600.5,-284.4985 596.7904,-294.4226 603.7888,-294.5699"/>
<text text-anchor="middle" x="612" y="-362.8" font-family="Times,serif" font-size="14.00" fill="#000000">next</text>
</g>
<!-- sjob2&#45;&gt;sjob3 -->
<g id="edge24" class="edge">
<title>sjob2&#45;&gt;sjob3</title>
<path fill="none" stroke="#000000" d="M596.1172,-248.1502C593.5787,-237.3409 591,-223.2277 591,-210.5 591,-210.5 591,-210.5 591,-120.5 591,-109.6538 586.6847,-98.7701 581.4423,-89.5498"/>
<polygon fill="#000000" stroke="#000000" points="584.3115,-87.5381 576.0163,-80.9471 578.3908,-91.2724 584.3115,-87.5381"/>
<text text-anchor="middle" x="603" y="-161.8" font-family="Times,serif" font-size="14.00" fill="#000000">next</text>
</g>
</g>
</svg>
