<?xml version="1.0" encoding="UTF-8" standalone="no"?>
<!DOCTYPE svg PUBLIC "-//W3C//DTD SVG 1.1//EN"
 "http://www.w3.org/Graphics/SVG/1.1/DTD/svg11.dtd">
<!-- Generated by graphviz version 2.40.1 (20161225.0304)
 -->
<!-- Title: %3 Pages: 1 -->
<svg width="1012pt" height="972pt"
 viewBox="0.00 0.00 1012.00 972.00" xmlns="http://www.w3.org/2000/svg" xmlns:xlink="http://www.w3.org/1999/xlink">
<g id="graph0" class="graph" transform="scale(1 1) rotate(0) translate(4 968)">
<title>%3</title>
<polygon fill="#ffffff" stroke="transparent" points="-4,4 -4,-968 1008,-968 1008,4 -4,4"/>
<text text-anchor="middle" x="502" y="-7.8" font-family="Times,serif" font-size="14.00" fill="#000000">quickstream job control</text>
<g id="clust1" class="cluster">
<title>cluster_7</title>
<polygon fill="none" stroke="#000000" points="8,-351 8,-956 472,-956 472,-351 8,-351"/>
<text text-anchor="middle" x="240" y="-940.8" font-family="Times,serif" font-size="14.00" fill="#000000">job flow</text>
</g>
<g id="clust2" class="cluster">
<title>cluster_0</title>
<polygon fill="none" stroke="#ff0000" points="320,-462 320,-925 464,-925 464,-462 320,-462"/>
<text text-anchor="middle" x="392" y="-909.8" font-family="Times,serif" font-size="14.00" fill="#000000">filter_1</text>
</g>
<g id="clust3" class="cluster">
<title>cluster_1</title>
<polygon fill="none" stroke="#00ff00" points="168,-462 168,-925 312,-925 312,-462 168,-462"/>
<text text-anchor="middle" x="240" y="-909.8" font-family="Times,serif" font-size="14.00" fill="#000000">filter_2</text>
</g>
<g id="clust4" class="cluster">
<title>cluster_2</title>
<polygon fill="none" stroke="#0000ff" points="16,-462 16,-925 160,-925 160,-462 16,-462"/>
<text text-anchor="middle" x="88" y="-909.8" font-family="Times,serif" font-size="14.00" fill="#000000">filter_3</text>
</g>
<g id="clust5" class="cluster">
<title>cluster_8</title>
<polygon fill="none" stroke="#000000" points="480,-31 480,-956 996,-956 996,-31 480,-31"/>
<text text-anchor="middle" x="738" y="-940.8" font-family="Times,serif" font-size="14.00" fill="#000000">job lists</text>
</g>
<g id="clust6" class="cluster">
<title>cluster_3</title>
<polygon fill="none" stroke="#000000" points="840,-240 840,-925 988,-925 988,-240 840,-240"/>
<text text-anchor="middle" x="914" y="-909.8" font-family="Times,serif" font-size="14.00" fill="#000000">working queue</text>
</g>
<g id="clust7" class="cluster">
<title>cluster_4</title>
<polygon fill="none" stroke="#000000" points="734,-39 734,-925 832,-925 832,-39 734,-39"/>
<text text-anchor="middle" x="783" y="-909.8" font-family="Times,serif" font-size="14.00" fill="#000000">unused stack</text>
</g>
<g id="clust8" class="cluster">
<title>cluster_5</title>
<polygon fill="none" stroke="#000000" points="644,-663 644,-925 726,-925 726,-663 644,-663"/>
<text text-anchor="middle" x="685" y="-909.8" font-family="Times,serif" font-size="14.00" fill="#000000">stage</text>
</g>
<g id="clust9" class="cluster">
<title>cluster_6</title>
<polygon fill="none" stroke="#000000" points="488,-39 488,-925 636,-925 636,-39 488,-39"/>
<text text-anchor="middle" x="562" y="-909.8" font-family="Times,serif" font-size="14.00" fill="#000000">stream queue</text>
</g>
<!-- filter_1_stage -->
<g id="node1" class="node">
<title>filter_1_stage</title>
<ellipse fill="none" stroke="#ff0000" cx="364" cy="-488" rx="28.6953" ry="18"/>
<text text-anchor="middle" x="364" y="-484.3" font-family="Times,serif" font-size="14.00" fill="#000000">stage</text>
</g>
<!-- stream_queue -->
<g id="node10" class="node">
<title>stream_queue</title>
<ellipse fill="none" stroke="#000000" cx="292" cy="-377" rx="57.6901" ry="18"/>
<text text-anchor="middle" x="292" y="-373.3" font-family="Times,serif" font-size="14.00" fill="#000000">stream queue</text>
</g>
<!-- filter_1_stage&#45;&gt;stream_queue -->
<g id="edge2" class="edge">
<title>filter_1_stage&#45;&gt;stream_queue</title>
<path fill="none" stroke="#ff0000" d="M353.0647,-471.1415C341.3613,-453.0986 322.6416,-424.2391 309.0106,-403.2247"/>
<polygon fill="#ff0000" stroke="#ff0000" points="311.894,-401.2382 303.5156,-394.7533 306.0212,-405.0476 311.894,-401.2382"/>
</g>
<!-- filter_1_unused -->
<g id="node2" class="node">
<title>filter_1_unused</title>
<ellipse fill="none" stroke="#ff0000" cx="384" cy="-689" rx="55.7903" ry="18"/>
<text text-anchor="middle" x="384" y="-685.3" font-family="Times,serif" font-size="14.00" fill="#000000">unused stack</text>
</g>
<!-- filter_1_unused&#45;&gt;filter_1_stage -->
<g id="edge1" class="edge">
<title>filter_1_unused&#45;&gt;filter_1_stage</title>
<path fill="none" stroke="#ff0000" d="M380.5,-670.5733C378.75,-659.806 377,-645.931 377,-633.5 377,-633.5 377,-633.5 377,-543.5 377,-534.2532 375.2682,-524.3628 373.0687,-515.5305"/>
<polygon fill="#ff0000" stroke="#ff0000" points="376.4,-514.446 370.3477,-505.75 369.6561,-516.3223 376.4,-514.446"/>
</g>
<!-- filter_1_working -->
<g id="node3" class="node">
<title>filter_1_working</title>
<ellipse fill="none" stroke="#ff0000" cx="392" cy="-876" rx="63.8893" ry="18"/>
<text text-anchor="middle" x="392" y="-872.3" font-family="Times,serif" font-size="14.00" fill="#000000">working queue</text>
</g>
<!-- filter_1_working&#45;&gt;filter_1_unused -->
<g id="edge4" class="edge">
<title>filter_1_working&#45;&gt;filter_1_unused</title>
<path fill="none" stroke="#ff0000" d="M390,-857.524C389,-846.7403 388,-832.8653 388,-820.5 388,-820.5 388,-820.5 388,-744.5 388,-735.709 387.4946,-726.155 386.843,-717.4912"/>
<polygon fill="#ff0000" stroke="#ff0000" points="390.3265,-717.1472 386,-707.476 383.3512,-717.7344 390.3265,-717.1472"/>
</g>
<!-- filter_2_stage -->
<g id="node4" class="node">
<title>filter_2_stage</title>
<ellipse fill="none" stroke="#00ff00" cx="254" cy="-488" rx="28.6953" ry="18"/>
<text text-anchor="middle" x="254" y="-484.3" font-family="Times,serif" font-size="14.00" fill="#000000">stage</text>
</g>
<!-- filter_2_stage&#45;&gt;stream_queue -->
<g id="edge6" class="edge">
<title>filter_2_stage&#45;&gt;stream_queue</title>
<path fill="none" stroke="#00ff00" d="M260.1054,-470.1659C266.1358,-452.5508 275.4475,-425.3507 282.4557,-404.8795"/>
<polygon fill="#00ff00" stroke="#00ff00" points="285.8559,-405.7532 285.7836,-395.1586 279.2333,-403.4859 285.8559,-405.7532"/>
</g>
<!-- filter_2_unused -->
<g id="node5" class="node">
<title>filter_2_unused</title>
<ellipse fill="none" stroke="#00ff00" cx="234" cy="-689" rx="55.7903" ry="18"/>
<text text-anchor="middle" x="234" y="-685.3" font-family="Times,serif" font-size="14.00" fill="#000000">unused stack</text>
</g>
<!-- filter_2_unused&#45;&gt;filter_2_stage -->
<g id="edge5" class="edge">
<title>filter_2_unused&#45;&gt;filter_2_stage</title>
<path fill="none" stroke="#00ff00" d="M237.5,-670.5733C239.25,-659.806 241,-645.931 241,-633.5 241,-633.5 241,-633.5 241,-543.5 241,-534.2532 242.7318,-524.3628 244.9313,-515.5305"/>
<polygon fill="#00ff00" stroke="#00ff00" points="248.3439,-516.3223 247.6523,-505.75 241.6,-514.446 248.3439,-516.3223"/>
</g>
<!-- filter_2_working -->
<g id="node6" class="node">
<title>filter_2_working</title>
<ellipse fill="none" stroke="#00ff00" cx="240" cy="-876" rx="63.8893" ry="18"/>
<text text-anchor="middle" x="240" y="-872.3" font-family="Times,serif" font-size="14.00" fill="#000000">working queue</text>
</g>
<!-- filter_2_working&#45;&gt;filter_2_unused -->
<g id="edge8" class="edge">
<title>filter_2_working&#45;&gt;filter_2_unused</title>
<path fill="none" stroke="#00ff00" d="M238.5,-857.5135C237.75,-846.7263 237,-832.8513 237,-820.5 237,-820.5 237,-820.5 237,-744.5 237,-735.719 236.6209,-726.1678 236.1323,-717.5036"/>
<polygon fill="#00ff00" stroke="#00ff00" points="239.6231,-717.2461 235.5,-707.4865 232.637,-717.6871 239.6231,-717.2461"/>
</g>
<!-- filter_3_stage -->
<g id="node7" class="node">
<title>filter_3_stage</title>
<ellipse fill="none" stroke="#0000ff" cx="104" cy="-488" rx="28.6953" ry="18"/>
<text text-anchor="middle" x="104" y="-484.3" font-family="Times,serif" font-size="14.00" fill="#000000">stage</text>
</g>
<!-- filter_3_stage&#45;&gt;stream_queue -->
<g id="edge10" class="edge">
<title>filter_3_stage&#45;&gt;stream_queue</title>
<path fill="none" stroke="#0000ff" d="M111.217,-470.3984C119.174,-453.1926 133.607,-427.5276 154,-413 166.8288,-403.861 200.9924,-394.9139 232.1154,-388.2254"/>
<polygon fill="#0000ff" stroke="#0000ff" points="233.0135,-391.6133 242.0826,-386.1358 231.5772,-384.7622 233.0135,-391.6133"/>
</g>
<!-- filter_3_unused -->
<g id="node8" class="node">
<title>filter_3_unused</title>
<ellipse fill="none" stroke="#0000ff" cx="84" cy="-689" rx="55.7903" ry="18"/>
<text text-anchor="middle" x="84" y="-685.3" font-family="Times,serif" font-size="14.00" fill="#000000">unused stack</text>
</g>
<!-- filter_3_unused&#45;&gt;filter_3_stage -->
<g id="edge9" class="edge">
<title>filter_3_unused&#45;&gt;filter_3_stage</title>
<path fill="none" stroke="#0000ff" d="M87.5,-670.5733C89.25,-659.806 91,-645.931 91,-633.5 91,-633.5 91,-633.5 91,-543.5 91,-534.2532 92.7318,-524.3628 94.9313,-515.5305"/>
<polygon fill="#0000ff" stroke="#0000ff" points="98.3439,-516.3223 97.6523,-505.75 91.6,-514.446 98.3439,-516.3223"/>
</g>
<!-- filter_3_working -->
<g id="node9" class="node">
<title>filter_3_working</title>
<ellipse fill="none" stroke="#0000ff" cx="88" cy="-876" rx="63.8893" ry="18"/>
<text text-anchor="middle" x="88" y="-872.3" font-family="Times,serif" font-size="14.00" fill="#000000">working queue</text>
</g>
<!-- filter_3_working&#45;&gt;filter_3_unused -->
<g id="edge12" class="edge">
<title>filter_3_working&#45;&gt;filter_3_unused</title>
<path fill="none" stroke="#0000ff" d="M87,-857.506C86.5,-846.7163 86,-832.8413 86,-820.5 86,-820.5 86,-820.5 86,-744.5 86,-735.7261 85.7473,-726.177 85.4215,-717.5125"/>
<polygon fill="#0000ff" stroke="#0000ff" points="88.9174,-717.338 85,-707.494 81.9236,-717.6323 88.9174,-717.338"/>
</g>
<!-- stream_queue&#45;&gt;filter_1_working -->
<g id="edge3" class="edge">
<title>stream_queue&#45;&gt;filter_1_working</title>
<path fill="none" stroke="#ff0000" d="M345.299,-384.3266C394.1727,-392.5864 459,-408.1346 459,-432.5 459,-820.5 459,-820.5 459,-820.5 459,-835.2268 449.2814,-846.7864 437.247,-855.4552"/>
<polygon fill="#ff0000" stroke="#ff0000" points="435.1504,-852.6423 428.6365,-860.9981 438.9394,-858.5282 435.1504,-852.6423"/>
</g>
<!-- stream_queue&#45;&gt;filter_2_working -->
<g id="edge7" class="edge">
<title>stream_queue&#45;&gt;filter_2_working</title>
<path fill="none" stroke="#00ff00" d="M300.5,-395.0758C304.75,-405.7261 309,-419.6011 309,-432.5 309,-820.5 309,-820.5 309,-820.5 309,-835.6332 298.7979,-847.3344 286.2395,-856.0053"/>
<polygon fill="#00ff00" stroke="#00ff00" points="284.3917,-853.0328 277.7302,-861.2714 288.0754,-858.9852 284.3917,-853.0328"/>
</g>
<!-- stream_queue&#45;&gt;filter_3_working -->
<g id="edge11" class="edge">
<title>stream_queue&#45;&gt;filter_3_working</title>
<path fill="none" stroke="#0000ff" d="M244.7347,-387.4282C206.5067,-397.2738 159,-413.3597 159,-432.5 159,-820.5 159,-820.5 159,-820.5 159,-835.901 148.5022,-847.664 135.5798,-856.3097"/>
<polygon fill="#0000ff" stroke="#0000ff" points="133.6085,-853.4104 126.8238,-861.5479 137.2023,-859.4176 133.6085,-853.4104"/>
</g>
<!-- First -->
<g id="node11" class="node">
<title>First</title>
<polygon fill="none" stroke="#000000" points="952.5418,-876 937.2709,-894 906.7291,-894 891.4582,-876 906.7291,-858 937.2709,-858 952.5418,-876"/>
<text text-anchor="middle" x="922" y="-872.3" font-family="Times,serif" font-size="14.00" fill="#000000">First</text>
</g>
<!-- job0 -->
<g id="node13" class="node">
<title>job0</title>
<ellipse fill="none" stroke="#000000" cx="922" cy="-689" rx="27" ry="18"/>
<text text-anchor="middle" x="922" y="-685.3" font-family="Times,serif" font-size="14.00" fill="#000000">job0</text>
</g>
<!-- First&#45;&gt;job0 -->
<g id="edge13" class="edge">
<title>First&#45;&gt;job0</title>
<path fill="none" stroke="#000000" d="M922,-857.5C922,-846.7083 922,-832.8333 922,-820.5 922,-820.5 922,-820.5 922,-744.5 922,-735.7318 922,-726.1843 922,-717.5196"/>
<polygon fill="#000000" stroke="#000000" points="925.5001,-717.5 922,-707.5 918.5001,-717.5 925.5001,-717.5"/>
</g>
<!-- Last -->
<g id="node12" class="node">
<title>Last</title>
<polygon fill="none" stroke="#000000" points="908.0391,-488 893.0196,-506 862.9804,-506 847.9609,-488 862.9804,-470 893.0196,-470 908.0391,-488"/>
<text text-anchor="middle" x="878" y="-484.3" font-family="Times,serif" font-size="14.00" fill="#000000">Last</text>
</g>
<!-- job2 -->
<g id="node14" class="node">
<title>job2</title>
<ellipse fill="none" stroke="#000000" cx="895" cy="-266" rx="27" ry="18"/>
<text text-anchor="middle" x="895" y="-262.3" font-family="Times,serif" font-size="14.00" fill="#000000">job2</text>
</g>
<!-- Last&#45;&gt;job2 -->
<g id="edge14" class="edge">
<title>Last&#45;&gt;job2</title>
<path fill="none" stroke="#000000" d="M867.8828,-469.8333C862.9222,-459.2679 858,-445.5073 858,-432.5 858,-432.5 858,-432.5 858,-321.5 858,-309.3189 864.2467,-297.778 871.6067,-288.4076"/>
<polygon fill="#000000" stroke="#000000" points="874.323,-290.6176 878.2321,-280.7702 869.0353,-286.0305 874.323,-290.6176"/>
</g>
<!-- job1 -->
<g id="node15" class="node">
<title>job1</title>
<ellipse fill="none" stroke="#000000" cx="953" cy="-488" rx="27" ry="18"/>
<text text-anchor="middle" x="953" y="-484.3" font-family="Times,serif" font-size="14.00" fill="#000000">job1</text>
</g>
<!-- job0&#45;&gt;job1 -->
<g id="edge15" class="edge">
<title>job0&#45;&gt;job1</title>
<path fill="none" stroke="#000000" d="M908.9837,-673.0529C901.6716,-662.4899 894,-647.9616 894,-633.5 894,-633.5 894,-633.5 894,-543.5 894,-526.2643 907.5234,-512.8109 921.6214,-503.4688"/>
<polygon fill="#000000" stroke="#000000" points="923.6115,-506.3556 930.3578,-498.1863 919.9895,-500.3655 923.6115,-506.3556"/>
<text text-anchor="middle" x="906" y="-584.8" font-family="Times,serif" font-size="14.00" fill="#000000">next</text>
</g>
<!-- job2&#45;&gt;job1 -->
<g id="edge18" class="edge">
<title>job2&#45;&gt;job1</title>
<path fill="none" stroke="#000000" d="M917.6834,-275.9014C934.6744,-285.0248 955,-300.3573 955,-321.5 955,-432.5 955,-432.5 955,-432.5 955,-441.411 954.7393,-451.1216 954.4062,-459.893"/>
<polygon fill="#000000" stroke="#000000" points="950.9041,-459.87 953.9766,-470.0095 957.8978,-460.167 950.9041,-459.87"/>
<text text-anchor="middle" x="967.5" y="-373.3" font-family="Times,serif" font-size="14.00" fill="#000000">prev</text>
</g>
<!-- job1&#45;&gt;job0 -->
<g id="edge17" class="edge">
<title>job1&#45;&gt;job0</title>
<path fill="none" stroke="#000000" d="M953.5,-506.4985C953.75,-517.2897 954,-531.1647 954,-543.5 954,-633.5 954,-633.5 954,-633.5 954,-644.7943 948.965,-655.8611 942.8893,-665.1038"/>
<polygon fill="#000000" stroke="#000000" points="939.9376,-663.2115 936.8758,-673.3543 945.5945,-667.3346 939.9376,-663.2115"/>
<text text-anchor="middle" x="966.5" y="-584.8" font-family="Times,serif" font-size="14.00" fill="#000000">prev</text>
</g>
<!-- job1&#45;&gt;job2 -->
<g id="edge16" class="edge">
<title>job1&#45;&gt;job2</title>
<path fill="none" stroke="#000000" d="M934.3292,-474.9061C917.3739,-462.3059 895,-443.5798 895,-432.5 895,-432.5 895,-432.5 895,-321.5 895,-312.7318 895,-303.1843 895,-294.5196"/>
<polygon fill="#000000" stroke="#000000" points="898.5001,-294.5 895,-284.5 891.5001,-294.5 898.5001,-294.5"/>
<text text-anchor="middle" x="907" y="-373.3" font-family="Times,serif" font-size="14.00" fill="#000000">next</text>
</g>
<!-- unused -->
<g id="node16" class="node">
<title>unused</title>
<polygon fill="none" stroke="#000000" points="824.055,-876 803.5275,-894 762.4725,-894 741.945,-876 762.4725,-858 803.5275,-858 824.055,-876"/>
<text text-anchor="middle" x="783" y="-872.3" font-family="Times,serif" font-size="14.00" fill="#000000">unused</text>
</g>
<!-- ujob0 -->
<g id="node17" class="node">
<title>ujob0</title>
<ellipse fill="none" stroke="#000000" cx="783" cy="-689" rx="27" ry="18"/>
<text text-anchor="middle" x="783" y="-685.3" font-family="Times,serif" font-size="14.00" fill="#000000">job0</text>
</g>
<!-- unused&#45;&gt;ujob0 -->
<g id="edge19" class="edge">
<title>unused&#45;&gt;ujob0</title>
<path fill="none" stroke="#000000" d="M783,-857.5C783,-846.7083 783,-832.8333 783,-820.5 783,-820.5 783,-820.5 783,-744.5 783,-735.7318 783,-726.1843 783,-717.5196"/>
<polygon fill="#000000" stroke="#000000" points="786.5001,-717.5 783,-707.5 779.5001,-717.5 786.5001,-717.5"/>
</g>
<!-- ujob1 -->
<g id="node18" class="node">
<title>ujob1</title>
<ellipse fill="none" stroke="#000000" cx="783" cy="-488" rx="27" ry="18"/>
<text text-anchor="middle" x="783" y="-484.3" font-family="Times,serif" font-size="14.00" fill="#000000">job1</text>
</g>
<!-- ujob0&#45;&gt;ujob1 -->
<g id="edge20" class="edge">
<title>ujob0&#45;&gt;ujob1</title>
<path fill="none" stroke="#000000" d="M783,-670.5C783,-659.7083 783,-645.8333 783,-633.5 783,-633.5 783,-633.5 783,-543.5 783,-534.7318 783,-525.1843 783,-516.5196"/>
<polygon fill="#000000" stroke="#000000" points="786.5001,-516.5 783,-506.5 779.5001,-516.5 786.5001,-516.5"/>
<text text-anchor="middle" x="795" y="-584.8" font-family="Times,serif" font-size="14.00" fill="#000000">next</text>
</g>
<!-- ujob2 -->
<g id="node19" class="node">
<title>ujob2</title>
<ellipse fill="none" stroke="#000000" cx="783" cy="-266" rx="27" ry="18"/>
<text text-anchor="middle" x="783" y="-262.3" font-family="Times,serif" font-size="14.00" fill="#000000">job2</text>
</g>
<!-- ujob1&#45;&gt;ujob2 -->
<g id="edge21" class="edge">
<title>ujob1&#45;&gt;ujob2</title>
<path fill="none" stroke="#000000" d="M783,-469.5C783,-458.7083 783,-444.8333 783,-432.5 783,-432.5 783,-432.5 783,-321.5 783,-312.7318 783,-303.1843 783,-294.5196"/>
<polygon fill="#000000" stroke="#000000" points="786.5001,-294.5 783,-284.5 779.5001,-294.5 786.5001,-294.5"/>
<text text-anchor="middle" x="795" y="-373.3" font-family="Times,serif" font-size="14.00" fill="#000000">next</text>
</g>
<!-- ujob3 -->
<g id="node20" class="node">
<title>ujob3</title>
<ellipse fill="none" stroke="#000000" cx="783" cy="-65" rx="27" ry="18"/>
<text text-anchor="middle" x="783" y="-61.3" font-family="Times,serif" font-size="14.00" fill="#000000">job3</text>
</g>
<!-- ujob2&#45;&gt;ujob3 -->
<g id="edge22" class="edge">
<title>ujob2&#45;&gt;ujob3</title>
<path fill="none" stroke="#000000" d="M783,-247.5C783,-236.7083 783,-222.8333 783,-210.5 783,-210.5 783,-210.5 783,-120.5 783,-111.7318 783,-102.1843 783,-93.5196"/>
<polygon fill="#000000" stroke="#000000" points="786.5001,-93.5 783,-83.5 779.5001,-93.5 786.5001,-93.5"/>
<text text-anchor="middle" x="795" y="-161.8" font-family="Times,serif" font-size="14.00" fill="#000000">next</text>
</g>
<!-- stage -->
<g id="node21" class="node">
<title>stage</title>
<polygon fill="none" stroke="#000000" points="718.043,-876 701.5215,-894 668.4785,-894 651.957,-876 668.4785,-858 701.5215,-858 718.043,-876"/>
<text text-anchor="middle" x="685" y="-872.3" font-family="Times,serif" font-size="14.00" fill="#000000">stage</text>
</g>
<!-- job -->
<g id="node22" class="node">
<title>job</title>
<ellipse fill="none" stroke="#000000" cx="685" cy="-689" rx="27" ry="18"/>
<text text-anchor="middle" x="685" y="-685.3" font-family="Times,serif" font-size="14.00" fill="#000000">job</text>
</g>
<!-- stage&#45;&gt;job -->
<g id="edge23" class="edge">
<title>stage&#45;&gt;job</title>
<path fill="none" stroke="#000000" d="M685,-857.5C685,-846.7083 685,-832.8333 685,-820.5 685,-820.5 685,-820.5 685,-744.5 685,-735.7318 685,-726.1843 685,-717.5196"/>
<polygon fill="#000000" stroke="#000000" points="688.5001,-717.5 685,-707.5 681.5001,-717.5 688.5001,-717.5"/>
</g>
<!-- sFirst -->
<g id="node23" class="node">
<title>sFirst</title>
<polygon fill="none" stroke="#000000" points="627.5418,-876 612.2709,-894 581.7291,-894 566.4582,-876 581.7291,-858 612.2709,-858 627.5418,-876"/>
<text text-anchor="middle" x="597" y="-872.3" font-family="Times,serif" font-size="14.00" fill="#000000">First</text>
</g>
<!-- sjob0 -->
<g id="node25" class="node">
<title>sjob0</title>
<ellipse fill="none" stroke="#000000" cx="599" cy="-689" rx="27" ry="18"/>
<text text-anchor="middle" x="599" y="-685.3" font-family="Times,serif" font-size="14.00" fill="#000000">job0</text>
</g>
<!-- sFirst&#45;&gt;sjob0 -->
<g id="edge24" class="edge">
<title>sFirst&#45;&gt;sjob0</title>
<path fill="none" stroke="#000000" d="M597,-857.5C597,-846.7083 597,-832.8333 597,-820.5 597,-820.5 597,-820.5 597,-744.5 597,-735.589 597.2607,-725.8784 597.5938,-717.107"/>
<polygon fill="#000000" stroke="#000000" points="601.0959,-717.13 598.0234,-706.9905 594.1022,-716.833 601.0959,-717.13"/>
</g>
<!-- sLast -->
<g id="node24" class="node">
<title>sLast</title>
<polygon fill="none" stroke="#000000" points="556.0391,-266 541.0196,-284 510.9804,-284 495.9609,-266 510.9804,-248 541.0196,-248 556.0391,-266"/>
<text text-anchor="middle" x="526" y="-262.3" font-family="Times,serif" font-size="14.00" fill="#000000">Last</text>
</g>
<!-- sjob3 -->
<g id="node28" class="node">
<title>sjob3</title>
<ellipse fill="none" stroke="#000000" cx="563" cy="-65" rx="27" ry="18"/>
<text text-anchor="middle" x="563" y="-61.3" font-family="Times,serif" font-size="14.00" fill="#000000">job3</text>
</g>
<!-- sLast&#45;&gt;sjob3 -->
<g id="edge25" class="edge">
<title>sLast&#45;&gt;sjob3</title>
<path fill="none" stroke="#000000" d="M530.5,-247.6208C532.75,-236.8694 535,-222.9944 535,-210.5 535,-210.5 535,-210.5 535,-120.5 535,-109.6538 539.3153,-98.7701 544.5577,-89.5498"/>
<polygon fill="#000000" stroke="#000000" points="547.6092,-91.2724 549.9837,-80.9471 541.6885,-87.5381 547.6092,-91.2724"/>
</g>
<!-- sjob1 -->
<g id="node26" class="node">
<title>sjob1</title>
<ellipse fill="none" stroke="#000000" cx="600" cy="-488" rx="27" ry="18"/>
<text text-anchor="middle" x="600" y="-484.3" font-family="Times,serif" font-size="14.00" fill="#000000">job1</text>
</g>
<!-- sjob0&#45;&gt;sjob1 -->
<g id="edge26" class="edge">
<title>sjob0&#45;&gt;sjob1</title>
<path fill="none" stroke="#000000" d="M599,-670.5C599,-659.7083 599,-645.8333 599,-633.5 599,-633.5 599,-633.5 599,-543.5 599,-534.7303 599.1264,-525.1825 599.2892,-516.5178"/>
<polygon fill="#000000" stroke="#000000" points="602.7888,-516.5699 599.5,-506.4985 595.7904,-516.4226 602.7888,-516.5699"/>
<text text-anchor="middle" x="611" y="-584.8" font-family="Times,serif" font-size="14.00" fill="#000000">next</text>
</g>
<!-- sjob2 -->
<g id="node27" class="node">
<title>sjob2</title>
<ellipse fill="none" stroke="#000000" cx="601" cy="-266" rx="27" ry="18"/>
<text text-anchor="middle" x="601" y="-262.3" font-family="Times,serif" font-size="14.00" fill="#000000">job2</text>
</g>
<!-- sjob1&#45;&gt;sjob2 -->
<g id="edge27" class="edge">
<title>sjob1&#45;&gt;sjob2</title>
<path fill="none" stroke="#000000" d="M600,-469.5C600,-458.7083 600,-444.8333 600,-432.5 600,-432.5 600,-432.5 600,-321.5 600,-312.7303 600.1264,-303.1825 600.2892,-294.5178"/>
<polygon fill="#000000" stroke="#000000" points="603.7888,-294.5699 600.5,-284.4985 596.7904,-294.4226 603.7888,-294.5699"/>
<text text-anchor="middle" x="612" y="-373.3" font-family="Times,serif" font-size="14.00" fill="#000000">next</text>
</g>
<!-- sjob2&#45;&gt;sjob3 -->
<g id="edge28" class="edge">
<title>sjob2&#45;&gt;sjob3</title>
<path fill="none" stroke="#000000" d="M596.1172,-248.1502C593.5787,-237.3409 591,-223.2277 591,-210.5 591,-210.5 591,-210.5 591,-120.5 591,-109.6538 586.6847,-98.7701 581.4423,-89.5498"/>
<polygon fill="#000000" stroke="#000000" points="584.3115,-87.5381 576.0163,-80.9471 578.3908,-91.2724 584.3115,-87.5381"/>
<text text-anchor="middle" x="603" y="-161.8" font-family="Times,serif" font-size="14.00" fill="#000000">next</text>
</g>
</g>
</svg>
