<?xml version="1.0" encoding="UTF-8" standalone="no"?>
<!DOCTYPE svg PUBLIC "-//W3C//DTD SVG 1.1//EN"
 "http://www.w3.org/Graphics/SVG/1.1/DTD/svg11.dtd">
<!-- Generated by graphviz version 2.38.0 (20140413.2041)
 -->
<!-- Title: %3 Pages: 1 -->
<svg width="252pt" height="461pt"
 viewBox="0.00 0.00 252.00 461.00" xmlns="http://www.w3.org/2000/svg" xmlns:xlink="http://www.w3.org/1999/xlink">
<g id="graph0" class="graph" transform="scale(1 1) rotate(0) translate(4 457)">
<title>%3</title>
<polygon fill="white" stroke="none" points="-4,4 -4,-457 248,-457 248,4 -4,4"/>
<text text-anchor="middle" x="122" y="-7.8" font-family="Times,serif" font-size="14.00">A simple quickstream flow graph</text>
<g id="clust1" class="cluster"><title>cluster_0</title>
<polygon fill="none" stroke="black" points="120,-355 120,-445 236,-445 236,-355 120,-355"/>
<text text-anchor="middle" x="178" y="-429.8" font-family="Times,serif" font-size="14.00">filter 0</text>
<text text-anchor="middle" x="178" y="-414.8" font-family="Times,serif" font-size="14.00">stdin</text>
</g>
<g id="clust2" class="cluster"><title>cluster_1</title>
<polygon fill="none" stroke="black" points="8,-193 8,-283 230,-283 230,-193 8,-193"/>
<text text-anchor="middle" x="119" y="-267.8" font-family="Times,serif" font-size="14.00">filter 1</text>
<text text-anchor="middle" x="119" y="-252.8" font-family="Times,serif" font-size="14.00">mung</text>
</g>
<g id="clust5" class="cluster"><title>cluster_2</title>
<polygon fill="none" stroke="black" points="14,-31 14,-121 118,-121 118,-31 14,-31"/>
<text text-anchor="middle" x="66" y="-105.8" font-family="Times,serif" font-size="14.00">filter 2</text>
<text text-anchor="middle" x="66" y="-90.8" font-family="Times,serif" font-size="14.00">stdout</text>
</g>
<!-- output0_0 -->
<g id="node1" class="node"><title>output0_0</title>
<polygon fill="none" stroke="blue" points="128.381,-375.438 178,-363 227.619,-375.438 227.573,-395.562 128.427,-395.562 128.381,-375.438"/>
<text text-anchor="middle" x="178" y="-377.3" font-family="Times,serif" font-size="14.00">output 0</text>
</g>
<!-- buffer_0 -->
<g id="node5" class="node"><title>buffer_0</title>
<polygon fill="none" stroke="red" points="209.5,-327 146.5,-327 146.5,-291 209.5,-291 209.5,-327"/>
<text text-anchor="middle" x="178" y="-305.3" font-family="Times,serif" font-size="14.00">buffer_0</text>
</g>
<!-- output0_0&#45;&gt;buffer_0 -->
<g id="edge2" class="edge"><title>output0_0&#45;&gt;buffer_0</title>
<path fill="none" stroke="black" d="M178,-362.697C178,-354.983 178,-345.712 178,-337.112"/>
<polygon fill="black" stroke="black" points="181.5,-337.104 178,-327.104 174.5,-337.104 181.5,-337.104"/>
</g>
<!-- input1_0 -->
<g id="node2" class="node"><title>input1_0</title>
<polygon fill="none" stroke="green" points="222.372,-224.562 178,-237 133.628,-224.562 133.67,-204.438 222.33,-204.438 222.372,-224.562"/>
<text text-anchor="middle" x="178" y="-215.3" font-family="Times,serif" font-size="14.00">input 0</text>
</g>
<!-- output1_0 -->
<g id="node3" class="node"><title>output1_0</title>
<polygon fill="none" stroke="blue" points="16.381,-213.438 66,-201 115.619,-213.438 115.573,-233.562 16.4273,-233.562 16.381,-213.438"/>
<text text-anchor="middle" x="66" y="-215.3" font-family="Times,serif" font-size="14.00">output 0</text>
</g>
<!-- buffer_1 -->
<g id="node6" class="node"><title>buffer_1</title>
<polygon fill="none" stroke="red" points="97.5,-165 34.5,-165 34.5,-129 97.5,-129 97.5,-165"/>
<text text-anchor="middle" x="66" y="-143.3" font-family="Times,serif" font-size="14.00">buffer_1</text>
</g>
<!-- output1_0&#45;&gt;buffer_1 -->
<g id="edge1" class="edge"><title>output1_0&#45;&gt;buffer_1</title>
<path fill="none" stroke="black" d="M66,-200.697C66,-192.983 66,-183.712 66,-175.112"/>
<polygon fill="black" stroke="black" points="69.5001,-175.104 66,-165.104 62.5001,-175.104 69.5001,-175.104"/>
</g>
<!-- input2_0 -->
<g id="node4" class="node"><title>input2_0</title>
<polygon fill="none" stroke="green" points="110.372,-62.5623 66,-75 21.6282,-62.5623 21.6696,-42.4377 110.33,-42.4377 110.372,-62.5623"/>
<text text-anchor="middle" x="66" y="-53.3" font-family="Times,serif" font-size="14.00">input 0</text>
</g>
<!-- buffer_0&#45;&gt;input1_0 -->
<g id="edge3" class="edge"><title>buffer_0&#45;&gt;input1_0</title>
<path fill="none" stroke="black" d="M178,-290.614C178,-278.24 178,-261.369 178,-247.22"/>
<polygon fill="black" stroke="black" points="181.5,-247.05 178,-237.05 174.5,-247.05 181.5,-247.05"/>
</g>
<!-- buffer_1&#45;&gt;input2_0 -->
<g id="edge4" class="edge"><title>buffer_1&#45;&gt;input2_0</title>
<path fill="none" stroke="black" d="M66,-128.614C66,-116.24 66,-99.3686 66,-85.2198"/>
<polygon fill="black" stroke="black" points="69.5001,-85.0504 66,-75.0504 62.5001,-85.0504 69.5001,-85.0504"/>
</g>
</g>
</svg>
