<?xml version="1.0" encoding="UTF-8" standalone="no"?>
<!DOCTYPE svg PUBLIC "-//W3C//DTD SVG 1.1//EN"
 "http://www.w3.org/Graphics/SVG/1.1/DTD/svg11.dtd">
<!-- Generated by graphviz version 2.38.0 (20140413.2041)
 -->
<!-- Title: %3 Pages: 1 -->
<svg width="424pt" height="463pt"
 viewBox="0.00 0.00 424.36 463.00" xmlns="http://www.w3.org/2000/svg" xmlns:xlink="http://www.w3.org/1999/xlink">
<g id="graph0" class="graph" transform="scale(1 1) rotate(0) translate(4 459)">
<title>%3</title>
<polygon fill="white" stroke="none" points="-4,4 -4,-459 420.356,-459 420.356,4 -4,4"/>
<text text-anchor="middle" x="208.178" y="-7.8" font-family="Times,serif" font-size="14.00">A more complex quickstream flow graph</text>
<g id="clust1" class="cluster"><title>cluster_0</title>
<polygon fill="none" stroke="black" points="56.3557,-357 56.3557,-447 408.356,-447 408.356,-357 56.3557,-357"/>
<text text-anchor="middle" x="232.356" y="-431.8" font-family="Times,serif" font-size="14.00">filter 0</text>
<text text-anchor="middle" x="232.356" y="-416.8" font-family="Times,serif" font-size="14.00">stdin</text>
</g>
<g id="clust2" class="cluster"><title>cluster_1</title>
<polygon fill="none" stroke="black" points="20.3557,-195 20.3557,-285 348.356,-285 348.356,-195 20.3557,-195"/>
<text text-anchor="middle" x="184.356" y="-269.8" font-family="Times,serif" font-size="14.00">filter 1</text>
<text text-anchor="middle" x="184.356" y="-254.8" font-family="Times,serif" font-size="14.00">mung</text>
</g>
<g id="clust5" class="cluster"><title>cluster_2</title>
<polygon fill="none" stroke="black" points="178.356,-31 178.356,-121 388.356,-121 388.356,-31 178.356,-31"/>
<text text-anchor="middle" x="283.356" y="-105.8" font-family="Times,serif" font-size="14.00">filter 2</text>
<text text-anchor="middle" x="283.356" y="-90.8" font-family="Times,serif" font-size="14.00">display</text>
</g>
<!-- output0_0 -->
<g id="node1" class="node"><title>output0_0</title>
<polygon fill="none" stroke="blue" points="64.7368,-377.438 114.356,-365 163.975,-377.438 163.928,-397.562 64.7831,-397.562 64.7368,-377.438"/>
<text text-anchor="middle" x="114.356" y="-379.3" font-family="Times,serif" font-size="14.00">output 0</text>
</g>
<!-- buffer_0 -->
<g id="node9" class="node"><title>buffer_0</title>
<polygon fill="none" stroke="red" points="145.856,-329 82.8557,-329 82.8557,-293 145.856,-293 145.856,-329"/>
<text text-anchor="middle" x="114.356" y="-307.3" font-family="Times,serif" font-size="14.00">buffer_0</text>
</g>
<!-- output0_0&#45;&gt;buffer_0 -->
<g id="edge3" class="edge"><title>output0_0&#45;&gt;buffer_0</title>
<path fill="none" stroke="black" d="M114.356,-364.697C114.356,-356.983 114.356,-347.712 114.356,-339.112"/>
<polygon fill="black" stroke="black" points="117.856,-339.104 114.356,-329.104 110.856,-339.104 117.856,-339.104"/>
</g>
<!-- output0_1 -->
<g id="node2" class="node"><title>output0_1</title>
<polygon fill="none" stroke="blue" points="182.737,-377.438 232.356,-365 281.975,-377.438 281.928,-397.562 182.783,-397.562 182.737,-377.438"/>
<text text-anchor="middle" x="232.356" y="-379.3" font-family="Times,serif" font-size="14.00">output 1</text>
</g>
<!-- buffer_1 -->
<g id="node10" class="node"><title>buffer_1</title>
<polygon fill="none" stroke="red" points="348.856,-329 285.856,-329 285.856,-293 348.856,-293 348.856,-329"/>
<text text-anchor="middle" x="317.356" y="-307.3" font-family="Times,serif" font-size="14.00">buffer_1</text>
</g>
<!-- output0_1&#45;&gt;buffer_1 -->
<g id="edge4" class="edge"><title>output0_1&#45;&gt;buffer_1</title>
<path fill="none" stroke="black" d="M248.344,-368.834C259.654,-359.519 275.135,-346.77 288.569,-335.707"/>
<polygon fill="black" stroke="black" points="291.119,-338.141 296.613,-329.082 286.669,-332.737 291.119,-338.141"/>
</g>
<!-- output0_2 -->
<g id="node3" class="node"><title>output0_2</title>
<polygon fill="none" stroke="blue" points="300.737,-377.438 350.356,-365 399.975,-377.438 399.928,-397.562 300.783,-397.562 300.737,-377.438"/>
<text text-anchor="middle" x="350.356" y="-379.3" font-family="Times,serif" font-size="14.00">output 2</text>
</g>
<!-- output0_2&#45;&gt;buffer_1 -->
<g id="edge1" class="edge"><title>output0_2&#45;&gt;buffer_1</title>
<path fill="none" stroke="black" d="M343.032,-366.465C339.199,-358.334 334.397,-348.147 329.985,-338.79"/>
<polygon fill="black" stroke="black" points="333.017,-337.014 325.587,-329.461 326.686,-339.999 333.017,-337.014"/>
</g>
<!-- input1_0 -->
<g id="node4" class="node"><title>input1_0</title>
<polygon fill="none" stroke="green" points="234.728,-226.562 190.356,-239 145.984,-226.562 146.025,-206.438 234.686,-206.438 234.728,-226.562"/>
<text text-anchor="middle" x="190.356" y="-217.3" font-family="Times,serif" font-size="14.00">input 0</text>
</g>
<!-- input1_1 -->
<g id="node5" class="node"><title>input1_1</title>
<polygon fill="none" stroke="green" points="340.728,-226.562 296.356,-239 251.984,-226.562 252.025,-206.438 340.686,-206.438 340.728,-226.562"/>
<text text-anchor="middle" x="296.356" y="-217.3" font-family="Times,serif" font-size="14.00">input 1</text>
</g>
<!-- output1_0 -->
<g id="node6" class="node"><title>output1_0</title>
<polygon fill="none" stroke="blue" points="28.7368,-215.438 78.3557,-203 127.975,-215.438 127.928,-235.562 28.7831,-235.562 28.7368,-215.438"/>
<text text-anchor="middle" x="78.3557" y="-217.3" font-family="Times,serif" font-size="14.00">output 0</text>
</g>
<!-- buffer_2 -->
<g id="node11" class="node"><title>buffer_2</title>
<polygon fill="none" stroke="red" stroke-dasharray="1,5" points="121.356,-167 35.3557,-167 35.3557,-129 121.356,-129 121.356,-167"/>
<text text-anchor="middle" x="78.3557" y="-151.8" font-family="Times,serif" font-size="14.00">buffer_0</text>
<text text-anchor="middle" x="78.3557" y="-136.8" font-family="Times,serif" font-size="14.00">pass through</text>
</g>
<!-- output1_0&#45;&gt;buffer_2 -->
<g id="edge8" class="edge"><title>output1_0&#45;&gt;buffer_2</title>
<path fill="none" stroke="black" d="M78.3557,-202.813C78.3557,-195.11 78.3557,-185.823 78.3557,-177.149"/>
<polygon fill="black" stroke="black" points="81.8558,-177.02 78.3557,-167.02 74.8558,-177.02 81.8558,-177.02"/>
</g>
<!-- input2_0 -->
<g id="node7" class="node"><title>input2_0</title>
<polygon fill="none" stroke="green" points="274.728,-62.5623 230.356,-75 185.984,-62.5623 186.025,-42.4377 274.686,-42.4377 274.728,-62.5623"/>
<text text-anchor="middle" x="230.356" y="-53.3" font-family="Times,serif" font-size="14.00">input 0</text>
</g>
<!-- input2_1 -->
<g id="node8" class="node"><title>input2_1</title>
<polygon fill="none" stroke="green" points="380.728,-62.5623 336.356,-75 291.984,-62.5623 292.025,-42.4377 380.686,-42.4377 380.728,-62.5623"/>
<text text-anchor="middle" x="336.356" y="-53.3" font-family="Times,serif" font-size="14.00">input 1</text>
</g>
<!-- buffer_0&#45;&gt;input1_0 -->
<g id="edge5" class="edge"><title>buffer_0&#45;&gt;input1_0</title>
<path fill="none" stroke="black" d="M130.294,-292.877C132.68,-290.256 135.096,-287.568 137.356,-285 149.17,-271.573 162.096,-256.221 172.226,-244.033"/>
<polygon fill="black" stroke="black" points="175.061,-246.098 178.744,-236.164 169.67,-241.633 175.061,-246.098"/>
</g>
<!-- buffer_0&#45;&gt;buffer_2 -->
<g id="edge2" class="edge"><title>buffer_0&#45;&gt;buffer_2</title>
<path fill="none" stroke="red" stroke-dasharray="1,5" d="M82.7775,-306.154C57.3397,-302.331 24.516,-295.503 16.3557,-285 -8.18509,-253.413 -1.62545,-230.731 16.3557,-195 20.5591,-186.647 27.0761,-179.431 34.3335,-173.352"/>
<polygon fill="red" stroke="red" points="36.5814,-176.04 42.4247,-167.202 32.3455,-170.467 36.5814,-176.04"/>
</g>
<!-- buffer_1&#45;&gt;input1_1 -->
<g id="edge6" class="edge"><title>buffer_1&#45;&gt;input1_1</title>
<path fill="none" stroke="black" d="M313.207,-292.614C310.167,-279.877 305.991,-262.374 302.556,-247.981"/>
<polygon fill="black" stroke="black" points="305.938,-247.077 300.213,-238.163 299.13,-248.702 305.938,-247.077"/>
</g>
<!-- buffer_1&#45;&gt;input2_1 -->
<g id="edge7" class="edge"><title>buffer_1&#45;&gt;input2_1</title>
<path fill="none" stroke="black" d="M346.516,-292.972C348.832,-290.577 350.852,-287.921 352.356,-285 386.498,-218.656 361.556,-126.656 346.125,-82.9618"/>
<polygon fill="black" stroke="black" points="349.358,-81.6097 342.633,-73.4226 342.784,-84.0164 349.358,-81.6097"/>
</g>
<!-- buffer_2&#45;&gt;input2_0 -->
<g id="edge9" class="edge"><title>buffer_2&#45;&gt;input2_0</title>
<path fill="none" stroke="black" d="M109.115,-128.99C136.119,-113.178 175.105,-90.3508 201.52,-74.8841"/>
<polygon fill="black" stroke="black" points="203.438,-77.8171 210.299,-69.7439 199.901,-71.7764 203.438,-77.8171"/>
</g>
</g>
</svg>
