<?xml version="1.0" encoding="UTF-8" standalone="no"?>
<!DOCTYPE svg PUBLIC "-//W3C//DTD SVG 1.1//EN"
 "http://www.w3.org/Graphics/SVG/1.1/DTD/svg11.dtd">
<!-- Generated by graphviz version 2.40.1 (20161225.0304)
 -->
<!-- Title: %3 Pages: 1 -->
<svg width="204pt" height="703pt"
 viewBox="0.00 0.00 204.00 703.00" xmlns="http://www.w3.org/2000/svg" xmlns:xlink="http://www.w3.org/1999/xlink">
<g id="graph0" class="graph" transform="scale(1 1) rotate(0) translate(4 699)">
<title>%3</title>
<polygon fill="#ffffff" stroke="transparent" points="-4,4 -4,-699 200,-699 200,4 -4,4"/>
<text text-anchor="middle" x="98" y="-7.8" font-family="Times,serif" font-size="14.00" fill="#000000">quickstream app</text>
<g id="clust1" class="cluster">
<title>cluster_0</title>
<polygon fill="none" stroke="#000000" points="8,-31 8,-687 188,-687 188,-31 8,-31"/>
<text text-anchor="middle" x="98" y="-671.8" font-family="Times,serif" font-size="14.00" fill="#000000">stream 0</text>
</g>
<g id="clust2" class="cluster">
<title>cluster_1</title>
<polygon fill="none" stroke="#000000" points="16,-581 16,-656 180,-656 180,-581 16,-581"/>
<text text-anchor="middle" x="98" y="-640.8" font-family="Times,serif" font-size="14.00" fill="#000000">stdin</text>
</g>
<g id="clust3" class="cluster">
<title>cluster_2</title>
<polygon fill="none" stroke="#000000" points="16,-310 16,-385 180,-385 180,-310 16,-310"/>
<text text-anchor="middle" x="98" y="-369.8" font-family="Times,serif" font-size="14.00" fill="#000000">transmogifer</text>
</g>
<g id="clust4" class="cluster">
<title>cluster_3</title>
<polygon fill="none" stroke="#000000" points="31,-39 31,-114 115,-114 115,-39 31,-39"/>
<text text-anchor="middle" x="73" y="-98.8" font-family="Times,serif" font-size="14.00" fill="#000000">stdout</text>
</g>
<!-- stdin -->
<g id="node1" class="node">
<title>stdin</title>
<ellipse fill="none" stroke="#000000" cx="138" cy="-607" rx="34.394" ry="18"/>
<text text-anchor="middle" x="138" y="-603.3" font-family="Times,serif" font-size="14.00" fill="#000000">input()</text>
</g>
<!-- stdin_output_0 -->
<g id="node2" class="node">
<title>stdin_output_0</title>
<polygon fill="none" stroke="#000000" points="86,-625 24,-625 24,-589 86,-589 86,-625"/>
<text text-anchor="middle" x="55" y="-603.3" font-family="Times,serif" font-size="14.00" fill="#000000">output 0</text>
</g>
<!-- stdin_writer_0 -->
<g id="node6" class="node">
<title>stdin_writer_0</title>
<polygon fill="none" stroke="#ff0000" points="155.3532,-500 64.1171,-500 40.6468,-464 131.8829,-464 155.3532,-500"/>
<text text-anchor="middle" x="98" y="-478.3" font-family="Times,serif" font-size="14.00" fill="#000000">buffer 0</text>
</g>
<!-- stdin_output_0&#45;&gt;stdin_writer_0 -->
<g id="edge1" class="edge">
<title>stdin_output_0&#45;&gt;stdin_writer_0</title>
<path fill="none" stroke="#000000" d="M61.2526,-588.8239C68.386,-568.0872 80.1332,-533.9384 88.4225,-509.8415"/>
<polygon fill="#000000" stroke="#000000" points="91.7966,-510.7927 91.7399,-500.198 85.1773,-508.5156 91.7966,-510.7927"/>
<text text-anchor="middle" x="81.5" y="-540.8" font-family="Times,serif" font-size="14.00" fill="#000000">0</text>
</g>
<!-- transmogifer -->
<g id="node3" class="node">
<title>transmogifer</title>
<ellipse fill="none" stroke="#000000" cx="138" cy="-336" rx="34.394" ry="18"/>
<text text-anchor="middle" x="138" y="-332.3" font-family="Times,serif" font-size="14.00" fill="#000000">input()</text>
</g>
<!-- transmogifer_output_0 -->
<g id="node4" class="node">
<title>transmogifer_output_0</title>
<polygon fill="none" stroke="#000000" points="86,-354 24,-354 24,-318 86,-318 86,-354"/>
<text text-anchor="middle" x="55" y="-332.3" font-family="Times,serif" font-size="14.00" fill="#000000">output 0</text>
</g>
<!-- transmogifer_writer_1 -->
<g id="node7" class="node">
<title>transmogifer_writer_1</title>
<polygon fill="none" stroke="#ff0000" points="130.3532,-229 39.1171,-229 15.6468,-193 106.8829,-193 130.3532,-229"/>
<text text-anchor="middle" x="73" y="-207.3" font-family="Times,serif" font-size="14.00" fill="#000000">buffer 1</text>
</g>
<!-- transmogifer_output_0&#45;&gt;transmogifer_writer_1 -->
<g id="edge3" class="edge">
<title>transmogifer_output_0&#45;&gt;transmogifer_writer_1</title>
<path fill="none" stroke="#000000" d="M57.6174,-317.8239C60.5901,-297.1798 65.477,-263.2431 68.9443,-239.1648"/>
<polygon fill="#000000" stroke="#000000" points="72.4184,-239.5948 70.3795,-229.198 65.4898,-238.597 72.4184,-239.5948"/>
<text text-anchor="middle" x="67.5" y="-269.8" font-family="Times,serif" font-size="14.00" fill="#000000">0</text>
</g>
<!-- stdout -->
<g id="node5" class="node">
<title>stdout</title>
<ellipse fill="none" stroke="#000000" cx="73" cy="-65" rx="34.394" ry="18"/>
<text text-anchor="middle" x="73" y="-61.3" font-family="Times,serif" font-size="14.00" fill="#000000">input()</text>
</g>
<!-- stdin_writer_0&#45;&gt;transmogifer -->
<g id="edge2" class="edge">
<title>stdin_writer_0&#45;&gt;transmogifer</title>
<path fill="none" stroke="#000000" d="M102.9852,-463.8042C109.8793,-438.6407 122.3827,-393.0033 130.4326,-363.6212"/>
<polygon fill="#000000" stroke="#000000" points="133.8109,-364.5359 133.0777,-353.9665 127.0596,-362.6862 133.8109,-364.5359"/>
<text text-anchor="middle" x="120.5" y="-415.8" font-family="Times,serif" font-size="14.00" fill="#000000">0</text>
</g>
<!-- transmogifer_writer_1&#45;&gt;stdout -->
<g id="edge4" class="edge">
<title>transmogifer_writer_1&#45;&gt;stdout</title>
<path fill="none" stroke="#000000" d="M73,-192.8042C73,-167.8868 73,-122.8938 73,-93.4877"/>
<polygon fill="#000000" stroke="#000000" points="76.5001,-93.4251 73,-83.4251 69.5001,-93.4251 76.5001,-93.4251"/>
<text text-anchor="middle" x="76.5" y="-144.8" font-family="Times,serif" font-size="14.00" fill="#000000">0</text>
</g>
</g>
</svg>
