<?xml version="1.0" encoding="UTF-8" standalone="no"?>
<!DOCTYPE svg PUBLIC "-//W3C//DTD SVG 1.1//EN"
 "http://www.w3.org/Graphics/SVG/1.1/DTD/svg11.dtd">
<!-- Generated by graphviz version 2.40.1 (20161225.0304)
 -->
<!-- Title: %3 Pages: 1 -->
<svg width="548pt" height="703pt"
 viewBox="0.00 0.00 548.00 703.00" xmlns="http://www.w3.org/2000/svg" xmlns:xlink="http://www.w3.org/1999/xlink">
<g id="graph0" class="graph" transform="scale(1 1) rotate(0) translate(4 699)">
<title>%3</title>
<polygon fill="#ffffff" stroke="transparent" points="-4,4 -4,-699 544,-699 544,4 -4,4"/>
<text text-anchor="middle" x="270" y="-7.8" font-family="Times,serif" font-size="14.00" fill="#000000">quickstream app</text>
<g id="clust1" class="cluster">
<title>cluster_0</title>
<polygon fill="none" stroke="#000000" points="8,-31 8,-687 532,-687 532,-31 8,-31"/>
<text text-anchor="middle" x="270" y="-671.8" font-family="Times,serif" font-size="14.00" fill="#000000">stream 0</text>
</g>
<g id="clust2" class="cluster">
<title>cluster_1</title>
<polygon fill="none" stroke="#000000" points="277,-581 277,-656 521,-656 521,-581 277,-581"/>
<text text-anchor="middle" x="399" y="-640.8" font-family="Times,serif" font-size="14.00" fill="#000000">stdin</text>
</g>
<g id="clust3" class="cluster">
<title>cluster_2</title>
<polygon fill="none" stroke="#000000" points="188,-310 188,-385 352,-385 352,-310 188,-310"/>
<text text-anchor="middle" x="270" y="-369.8" font-family="Times,serif" font-size="14.00" fill="#000000">tests/sleep</text>
</g>
<g id="clust4" class="cluster">
<title>cluster_3</title>
<polygon fill="none" stroke="#000000" points="185,-39 185,-114 269,-114 269,-39 185,-39"/>
<text text-anchor="middle" x="227" y="-98.8" font-family="Times,serif" font-size="14.00" fill="#000000">stdout</text>
</g>
<g id="clust5" class="cluster">
<title>cluster_4</title>
<polygon fill="none" stroke="#000000" points="360,-310 360,-385 524,-385 524,-310 360,-310"/>
<text text-anchor="middle" x="442" y="-369.8" font-family="Times,serif" font-size="14.00" fill="#000000">tests/sleep&#45;2</text>
</g>
<g id="clust6" class="cluster">
<title>cluster_5</title>
<polygon fill="none" stroke="#000000" points="16,-310 16,-385 180,-385 180,-310 16,-310"/>
<text text-anchor="middle" x="98" y="-369.8" font-family="Times,serif" font-size="14.00" fill="#000000">foodog</text>
</g>
<!-- stdin -->
<g id="node1" class="node">
<title>stdin</title>
<ellipse fill="none" stroke="#000000" cx="479" cy="-607" rx="34.394" ry="18"/>
<text text-anchor="middle" x="479" y="-603.3" font-family="Times,serif" font-size="14.00" fill="#000000">input()</text>
</g>
<!-- stdin_output_0 -->
<g id="node2" class="node">
<title>stdin_output_0</title>
<polygon fill="none" stroke="#000000" points="347,-625 285,-625 285,-589 347,-589 347,-625"/>
<text text-anchor="middle" x="316" y="-603.3" font-family="Times,serif" font-size="14.00" fill="#000000">output 0</text>
</g>
<!-- stdin_writer_0 -->
<g id="node11" class="node">
<title>stdin_writer_0</title>
<polygon fill="none" stroke="#ff0000" points="367.3532,-500 276.1171,-500 252.6468,-464 343.8829,-464 367.3532,-500"/>
<text text-anchor="middle" x="310" y="-478.3" font-family="Times,serif" font-size="14.00" fill="#000000">buffer 0</text>
</g>
<!-- stdin_output_0&#45;&gt;stdin_writer_0 -->
<g id="edge1" class="edge">
<title>stdin_output_0&#45;&gt;stdin_writer_0</title>
<path fill="none" stroke="#000000" d="M315.1275,-588.8239C314.1411,-568.2723 312.5223,-534.5472 311.3675,-510.4893"/>
<polygon fill="#000000" stroke="#000000" points="314.849,-510.0187 310.8735,-500.198 307.8571,-510.3543 314.849,-510.0187"/>
<text text-anchor="middle" x="316.5" y="-540.8" font-family="Times,serif" font-size="14.00" fill="#000000">0</text>
</g>
<!-- stdin_output_1 -->
<g id="node3" class="node">
<title>stdin_output_1</title>
<polygon fill="none" stroke="#000000" points="427,-625 365,-625 365,-589 427,-589 427,-625"/>
<text text-anchor="middle" x="396" y="-603.3" font-family="Times,serif" font-size="14.00" fill="#000000">output 1</text>
</g>
<!-- stdin_writer_1 -->
<g id="node12" class="node">
<title>stdin_writer_1</title>
<polygon fill="none" stroke="#ff0000" points="511.3532,-500 420.1171,-500 396.6468,-464 487.8829,-464 511.3532,-500"/>
<text text-anchor="middle" x="454" y="-478.3" font-family="Times,serif" font-size="14.00" fill="#000000">buffer 1</text>
</g>
<!-- stdin_output_1&#45;&gt;stdin_writer_1 -->
<g id="edge6" class="edge">
<title>stdin_output_1&#45;&gt;stdin_writer_1</title>
<path fill="none" stroke="#000000" d="M404.4337,-588.8239C414.0985,-567.9946 430.0422,-533.6333 441.231,-509.5193"/>
<polygon fill="#000000" stroke="#000000" points="444.522,-510.7423 445.5561,-500.198 438.1722,-507.7959 444.522,-510.7423"/>
<text text-anchor="middle" x="430.5" y="-540.8" font-family="Times,serif" font-size="14.00" fill="#000000">1</text>
</g>
<!-- tests/sleep -->
<g id="node4" class="node">
<title>tests/sleep</title>
<ellipse fill="none" stroke="#000000" cx="310" cy="-336" rx="34.394" ry="18"/>
<text text-anchor="middle" x="310" y="-332.3" font-family="Times,serif" font-size="14.00" fill="#000000">input()</text>
</g>
<!-- tests/sleep_output_0 -->
<g id="node5" class="node">
<title>tests/sleep_output_0</title>
<polygon fill="none" stroke="#000000" points="258,-354 196,-354 196,-318 258,-318 258,-354"/>
<text text-anchor="middle" x="227" y="-332.3" font-family="Times,serif" font-size="14.00" fill="#000000">output 0</text>
</g>
<!-- tests/sleep_writer_2 -->
<g id="node13" class="node">
<title>tests/sleep_writer_2</title>
<polygon fill="none" stroke="#ff0000" points="284.3532,-229 193.1171,-229 169.6468,-193 260.8829,-193 284.3532,-229"/>
<text text-anchor="middle" x="227" y="-207.3" font-family="Times,serif" font-size="14.00" fill="#000000">buffer 2</text>
</g>
<!-- tests/sleep_output_0&#45;&gt;tests/sleep_writer_2 -->
<g id="edge8" class="edge">
<title>tests/sleep_output_0&#45;&gt;tests/sleep_writer_2</title>
<path fill="none" stroke="#000000" d="M227,-317.8239C227,-297.2723 227,-263.5472 227,-239.4893"/>
<polygon fill="#000000" stroke="#000000" points="230.5001,-239.198 227,-229.198 223.5001,-239.198 230.5001,-239.198"/>
<text text-anchor="middle" x="230.5" y="-269.8" font-family="Times,serif" font-size="14.00" fill="#000000">0</text>
</g>
<!-- stdout -->
<g id="node6" class="node">
<title>stdout</title>
<ellipse fill="none" stroke="#000000" cx="227" cy="-65" rx="34.394" ry="18"/>
<text text-anchor="middle" x="227" y="-61.3" font-family="Times,serif" font-size="14.00" fill="#000000">input()</text>
</g>
<!-- tests/sleep&#45;2 -->
<g id="node7" class="node">
<title>tests/sleep&#45;2</title>
<ellipse fill="none" stroke="#000000" cx="482" cy="-336" rx="34.394" ry="18"/>
<text text-anchor="middle" x="482" y="-332.3" font-family="Times,serif" font-size="14.00" fill="#000000">input()</text>
</g>
<!-- tests/sleep&#45;2_output_0 -->
<g id="node8" class="node">
<title>tests/sleep&#45;2_output_0</title>
<polygon fill="none" stroke="#000000" points="430,-354 368,-354 368,-318 430,-318 430,-354"/>
<text text-anchor="middle" x="399" y="-332.3" font-family="Times,serif" font-size="14.00" fill="#000000">output 0</text>
</g>
<!-- tests/sleep&#45;2_writer_3 -->
<g id="node14" class="node">
<title>tests/sleep&#45;2_writer_3</title>
<polygon fill="none" stroke="#ff0000" points="416.3532,-229 325.1171,-229 301.6468,-193 392.8829,-193 416.3532,-229"/>
<text text-anchor="middle" x="359" y="-207.3" font-family="Times,serif" font-size="14.00" fill="#000000">buffer 3</text>
</g>
<!-- tests/sleep&#45;2_output_0&#45;&gt;tests/sleep&#45;2_writer_3 -->
<g id="edge10" class="edge">
<title>tests/sleep&#45;2_output_0&#45;&gt;tests/sleep&#45;2_writer_3</title>
<path fill="none" stroke="#000000" d="M393.1837,-317.8239C386.5479,-297.0872 375.6203,-262.9384 367.9093,-238.8415"/>
<polygon fill="#000000" stroke="#000000" points="371.2047,-237.6555 364.8234,-229.198 364.5377,-239.789 371.2047,-237.6555"/>
<text text-anchor="middle" x="383.5" y="-269.8" font-family="Times,serif" font-size="14.00" fill="#000000">0</text>
</g>
<!-- foodog -->
<g id="node9" class="node">
<title>foodog</title>
<ellipse fill="none" stroke="#000000" cx="138" cy="-336" rx="34.394" ry="18"/>
<text text-anchor="middle" x="138" y="-332.3" font-family="Times,serif" font-size="14.00" fill="#000000">input()</text>
</g>
<!-- foodog_output_0 -->
<g id="node10" class="node">
<title>foodog_output_0</title>
<polygon fill="none" stroke="#000000" points="86,-354 24,-354 24,-318 86,-318 86,-354"/>
<text text-anchor="middle" x="55" y="-332.3" font-family="Times,serif" font-size="14.00" fill="#000000">output 0</text>
</g>
<!-- foodog_writer_4 -->
<g id="node15" class="node">
<title>foodog_writer_4</title>
<polygon fill="none" stroke="#ff0000" points="152.3532,-229 61.1171,-229 37.6468,-193 128.8829,-193 152.3532,-229"/>
<text text-anchor="middle" x="95" y="-207.3" font-family="Times,serif" font-size="14.00" fill="#000000">buffer 4</text>
</g>
<!-- foodog_output_0&#45;&gt;foodog_writer_4 -->
<g id="edge13" class="edge">
<title>foodog_output_0&#45;&gt;foodog_writer_4</title>
<path fill="none" stroke="#000000" d="M60.8163,-317.8239C67.4521,-297.0872 78.3797,-262.9384 86.0907,-238.8415"/>
<polygon fill="#000000" stroke="#000000" points="89.4623,-239.789 89.1766,-229.198 82.7953,-237.6555 89.4623,-239.789"/>
<text text-anchor="middle" x="79.5" y="-269.8" font-family="Times,serif" font-size="14.00" fill="#000000">0</text>
</g>
<!-- stdin_writer_0&#45;&gt;tests/sleep -->
<g id="edge2" class="edge">
<title>stdin_writer_0&#45;&gt;tests/sleep</title>
<path fill="none" stroke="#000000" d="M310,-463.8042C310,-438.8868 310,-393.8938 310,-364.4877"/>
<polygon fill="#000000" stroke="#000000" points="313.5001,-364.4251 310,-354.4251 306.5001,-364.4251 313.5001,-364.4251"/>
<text text-anchor="middle" x="313.5" y="-415.8" font-family="Times,serif" font-size="14.00" fill="#000000">0</text>
</g>
<!-- stdin_writer_0&#45;&gt;tests/sleep&#45;2 -->
<g id="edge3" class="edge">
<title>stdin_writer_0&#45;&gt;tests/sleep&#45;2</title>
<path fill="none" stroke="#000000" d="M337.2003,-463.9954C364.2156,-445.5632 406.2264,-415.3871 439,-385 447.0921,-377.4972 455.2576,-368.6018 462.2668,-360.4628"/>
<polygon fill="#000000" stroke="#000000" points="465.078,-362.5582 468.845,-352.6556 459.7249,-358.0477 465.078,-362.5582"/>
<text text-anchor="middle" x="410.5" y="-415.8" font-family="Times,serif" font-size="14.00" fill="#000000">0</text>
</g>
<!-- stdin_writer_0&#45;&gt;foodog -->
<g id="edge4" class="edge">
<title>stdin_writer_0&#45;&gt;foodog</title>
<path fill="none" stroke="#000000" d="M272.0272,-463.8221C261.7358,-458.459 250.7497,-452.3219 241,-446 205.851,-423.2087 174.3762,-385.8943 155.7303,-361.1407"/>
<polygon fill="#000000" stroke="#000000" points="158.4406,-358.9191 149.685,-352.9533 152.8093,-363.077 158.4406,-358.9191"/>
<text text-anchor="middle" x="218.5" y="-415.8" font-family="Times,serif" font-size="14.00" fill="#000000">0</text>
</g>
<!-- stdin_writer_0&#45;&gt;foodog -->
<g id="edge5" class="edge">
<title>stdin_writer_0&#45;&gt;foodog</title>
<path fill="none" stroke="#000000" d="M288.8631,-463.9084C271.708,-449.4429 246.7246,-428.8655 224,-412 206.7765,-399.2172 200.3306,-398.9054 184,-385 175.248,-377.5477 166.4198,-368.5746 158.8701,-360.3549"/>
<polygon fill="#000000" stroke="#000000" points="161.3531,-357.8814 152.0677,-352.7791 156.1446,-362.5582 161.3531,-357.8814"/>
<text text-anchor="middle" x="245.5" y="-415.8" font-family="Times,serif" font-size="14.00" fill="#000000">1</text>
</g>
<!-- stdin_writer_1&#45;&gt;tests/sleep&#45;2 -->
<g id="edge7" class="edge">
<title>stdin_writer_1&#45;&gt;tests/sleep&#45;2</title>
<path fill="none" stroke="#000000" d="M457.4896,-463.8042C462.2944,-438.7506 470.9915,-393.4015 476.6288,-364.007"/>
<polygon fill="#000000" stroke="#000000" points="480.1082,-364.4467 478.5544,-353.9665 473.2335,-363.1282 480.1082,-364.4467"/>
<text text-anchor="middle" x="470.5" y="-415.8" font-family="Times,serif" font-size="14.00" fill="#000000">1</text>
</g>
<!-- tests/sleep_writer_2&#45;&gt;stdout -->
<g id="edge9" class="edge">
<title>tests/sleep_writer_2&#45;&gt;stdout</title>
<path fill="none" stroke="#000000" d="M227,-192.8042C227,-167.8868 227,-122.8938 227,-93.4877"/>
<polygon fill="#000000" stroke="#000000" points="230.5001,-93.4251 227,-83.4251 223.5001,-93.4251 230.5001,-93.4251"/>
<text text-anchor="middle" x="230.5" y="-144.8" font-family="Times,serif" font-size="14.00" fill="#000000">0</text>
</g>
<!-- tests/sleep&#45;2_writer_3&#45;&gt;stdout -->
<g id="edge11" class="edge">
<title>tests/sleep&#45;2_writer_3&#45;&gt;stdout</title>
<path fill="none" stroke="#000000" d="M348.7117,-192.8146C337.5791,-173.9828 318.6318,-144.2537 298,-122 285.5402,-108.5608 269.8039,-95.6035 256.3142,-85.4481"/>
<polygon fill="#000000" stroke="#000000" points="258.3811,-82.6235 248.2547,-79.5077 254.2278,-88.2583 258.3811,-82.6235"/>
<text text-anchor="middle" x="327.5" y="-144.8" font-family="Times,serif" font-size="14.00" fill="#000000">1</text>
</g>
<!-- tests/sleep&#45;2_writer_3&#45;&gt;stdout -->
<g id="edge12" class="edge">
<title>tests/sleep&#45;2_writer_3&#45;&gt;stdout</title>
<path fill="none" stroke="#000000" d="M339.6109,-192.8677C328.6085,-182.3558 314.7347,-168.7204 303,-156 283.0297,-134.3521 261.6408,-108.4749 246.6579,-89.859"/>
<polygon fill="#000000" stroke="#000000" points="249.2346,-87.4773 240.2527,-81.858 243.77,-91.852 249.2346,-87.4773"/>
<text text-anchor="middle" x="306.5" y="-144.8" font-family="Times,serif" font-size="14.00" fill="#000000">2</text>
</g>
<!-- foodog_writer_4&#45;&gt;stdout -->
<g id="edge14" class="edge">
<title>foodog_writer_4&#45;&gt;stdout</title>
<path fill="none" stroke="#000000" d="M111.451,-192.8042C135.0773,-166.6721 178.6668,-118.4594 205.028,-89.3024"/>
<polygon fill="#000000" stroke="#000000" points="207.8651,-91.3832 211.9754,-81.6181 202.6727,-86.6886 207.8651,-91.3832"/>
<text text-anchor="middle" x="160.5" y="-144.8" font-family="Times,serif" font-size="14.00" fill="#000000">3</text>
</g>
<!-- foodog_writer_4&#45;&gt;stdout -->
<g id="edge15" class="edge">
<title>foodog_writer_4&#45;&gt;stdout</title>
<path fill="none" stroke="#000000" d="M102.7708,-192.866C109.6656,-177.9998 120.6943,-156.8942 134,-141 152.1885,-119.2731 177.2721,-99.1977 196.8057,-85.1426"/>
<polygon fill="#000000" stroke="#000000" points="198.9175,-87.9361 205.0726,-79.3126 194.8832,-82.2156 198.9175,-87.9361"/>
<text text-anchor="middle" x="137.5" y="-144.8" font-family="Times,serif" font-size="14.00" fill="#000000">4</text>
</g>
</g>
</svg>
