<?xml version="1.0" encoding="UTF-8" standalone="no"?>
<!DOCTYPE svg PUBLIC "-//W3C//DTD SVG 1.1//EN"
 "http://www.w3.org/Graphics/SVG/1.1/DTD/svg11.dtd">
<!-- Generated by graphviz version 2.40.1 (20161225.0304)
 -->
<!-- Title: %3 Pages: 1 -->
<svg width="192pt" height="338pt"
 viewBox="0.00 0.00 192.00 338.00" xmlns="http://www.w3.org/2000/svg" xmlns:xlink="http://www.w3.org/1999/xlink">
<g id="graph0" class="graph" transform="scale(1 1) rotate(0) translate(4 334)">
<title>%3</title>
<polygon fill="#ffffff" stroke="transparent" points="-4,4 -4,-334 188,-334 188,4 -4,4"/>
<text text-anchor="middle" x="92" y="-7.8" font-family="Times,serif" font-size="14.00" fill="#000000">quickstream app</text>
<g id="clust1" class="cluster">
<title>cluster_0</title>
<polygon fill="none" stroke="#000000" points="8,-31 8,-322 176,-322 176,-31 8,-31"/>
<text text-anchor="middle" x="92" y="-306.8" font-family="Times,serif" font-size="14.00" fill="#000000">stream 0</text>
</g>
<!-- input -->
<g id="node1" class="node">
<title>input</title>
<ellipse fill="none" stroke="#000000" cx="92" cy="-273" rx="28.6953" ry="18"/>
<text text-anchor="middle" x="92" y="-269.3" font-family="Times,serif" font-size="14.00" fill="#000000">input</text>
</g>
<!-- transWarpConduit -->
<g id="node2" class="node">
<title>transWarpConduit</title>
<ellipse fill="none" stroke="#000000" cx="92" cy="-201" rx="76.0865" ry="18"/>
<text text-anchor="middle" x="92" y="-197.3" font-family="Times,serif" font-size="14.00" fill="#000000">transWarpConduit</text>
</g>
<!-- input&#45;&gt;transWarpConduit -->
<g id="edge1" class="edge">
<title>input&#45;&gt;transWarpConduit</title>
<path fill="none" stroke="#000000" d="M92,-254.8314C92,-247.131 92,-237.9743 92,-229.4166"/>
<polygon fill="#000000" stroke="#000000" points="95.5001,-229.4132 92,-219.4133 88.5001,-229.4133 95.5001,-229.4132"/>
</g>
<!-- malulator -->
<g id="node3" class="node">
<title>malulator</title>
<ellipse fill="none" stroke="#000000" cx="92" cy="-129" rx="44.6926" ry="18"/>
<text text-anchor="middle" x="92" y="-125.3" font-family="Times,serif" font-size="14.00" fill="#000000">malulator</text>
</g>
<!-- transWarpConduit&#45;&gt;malulator -->
<g id="edge2" class="edge">
<title>transWarpConduit&#45;&gt;malulator</title>
<path fill="none" stroke="#000000" d="M92,-182.8314C92,-175.131 92,-165.9743 92,-157.4166"/>
<polygon fill="#000000" stroke="#000000" points="95.5001,-157.4132 92,-147.4133 88.5001,-157.4133 95.5001,-157.4132"/>
</g>
<!-- output -->
<g id="node4" class="node">
<title>output</title>
<ellipse fill="none" stroke="#000000" cx="92" cy="-57" rx="33.2948" ry="18"/>
<text text-anchor="middle" x="92" y="-53.3" font-family="Times,serif" font-size="14.00" fill="#000000">output</text>
</g>
<!-- malulator&#45;&gt;output -->
<g id="edge3" class="edge">
<title>malulator&#45;&gt;output</title>
<path fill="none" stroke="#000000" d="M92,-110.8314C92,-103.131 92,-93.9743 92,-85.4166"/>
<polygon fill="#000000" stroke="#000000" points="95.5001,-85.4132 92,-75.4133 88.5001,-85.4133 95.5001,-85.4132"/>
</g>
</g>
</svg>
