<?xml version="1.0" encoding="UTF-8" standalone="no"?>
<!DOCTYPE svg PUBLIC "-//W3C//DTD SVG 1.1//EN"
 "http://www.w3.org/Graphics/SVG/1.1/DTD/svg11.dtd">
<!-- Generated by graphviz version 2.38.0 (20140413.2041)
 -->
<!-- Title: %3 Pages: 1 -->
<svg width="228pt" height="568pt"
 viewBox="0.00 0.00 228.00 568.00" xmlns="http://www.w3.org/2000/svg" xmlns:xlink="http://www.w3.org/1999/xlink">
<g id="graph0" class="graph" transform="scale(1 1) rotate(0) translate(4 564)">
<title>%3</title>
<polygon fill="white" stroke="none" points="-4,4 -4,-564 224,-564 224,4 -4,4"/>
<text text-anchor="middle" x="110" y="-7.8" font-family="Times,serif" font-size="14.00">faststream states expanded</text>
<g id="clust1" class="cluster"><title>cluster_0</title>
<polygon fill="none" stroke="black" points="8,-261 8,-552 82,-552 82,-261 8,-261"/>
<text text-anchor="middle" x="45" y="-536.8" font-family="Times,serif" font-size="14.00">run</text>
</g>
<g id="clust2" class="cluster"><title>cluster_1</title>
<polygon fill="none" stroke="black" points="12,-103 12,-253 116,-253 116,-103 12,-103"/>
<text text-anchor="middle" x="64" y="-237.8" font-family="Times,serif" font-size="14.00">pause</text>
</g>
<g id="clust3" class="cluster"><title>cluster_2</title>
<polygon fill="none" stroke="black" points="124,-31 124,-178 212,-178 212,-31 124,-31"/>
<text text-anchor="middle" x="168" y="-162.8" font-family="Times,serif" font-size="14.00">exit</text>
</g>
<!-- start -->
<g id="node1" class="node"><title>start</title>
<ellipse fill="none" stroke="black" cx="46" cy="-503" rx="27" ry="18"/>
<text text-anchor="middle" x="46" y="-499.3" font-family="Times,serif" font-size="14.00">start</text>
</g>
<!-- flow -->
<g id="node2" class="node"><title>flow</title>
<ellipse fill="none" stroke="black" cx="45" cy="-431" rx="27" ry="18"/>
<text text-anchor="middle" x="45" y="-427.3" font-family="Times,serif" font-size="14.00">flow</text>
</g>
<!-- start&#45;&gt;flow -->
<g id="edge1" class="edge"><title>start&#45;&gt;flow</title>
<path fill="none" stroke="black" d="M45.7528,-484.697C45.6426,-476.983 45.5102,-467.712 45.3873,-459.112"/>
<polygon fill="black" stroke="black" points="48.8869,-459.053 45.2443,-449.104 41.8876,-459.153 48.8869,-459.053"/>
</g>
<!-- flush -->
<g id="node3" class="node"><title>flush</title>
<ellipse fill="none" stroke="black" cx="45" cy="-359" rx="28.6953" ry="18"/>
<text text-anchor="middle" x="45" y="-355.3" font-family="Times,serif" font-size="14.00">flush</text>
</g>
<!-- flow&#45;&gt;flush -->
<g id="edge2" class="edge"><title>flow&#45;&gt;flush</title>
<path fill="none" stroke="black" d="M45,-412.697C45,-404.983 45,-395.712 45,-387.112"/>
<polygon fill="black" stroke="black" points="48.5001,-387.104 45,-377.104 41.5001,-387.104 48.5001,-387.104"/>
</g>
<!-- stop -->
<g id="node4" class="node"><title>stop</title>
<ellipse fill="none" stroke="black" cx="46" cy="-287" rx="27" ry="18"/>
<text text-anchor="middle" x="46" y="-283.3" font-family="Times,serif" font-size="14.00">stop</text>
</g>
<!-- flush&#45;&gt;stop -->
<g id="edge3" class="edge"><title>flush&#45;&gt;stop</title>
<path fill="none" stroke="black" d="M45.2472,-340.697C45.3574,-332.983 45.4898,-323.712 45.6127,-315.112"/>
<polygon fill="black" stroke="black" points="49.1124,-315.153 45.7557,-305.104 42.1131,-315.053 49.1124,-315.153"/>
</g>
<!-- wait -->
<g id="node5" class="node"><title>wait</title>
<ellipse fill="none" stroke="black" cx="64" cy="-204" rx="27" ry="18"/>
<text text-anchor="middle" x="64" y="-200.3" font-family="Times,serif" font-size="14.00">wait</text>
</g>
<!-- stop&#45;&gt;wait -->
<g id="edge4" class="edge"><title>stop&#45;&gt;wait</title>
<path fill="none" stroke="black" d="M49.8173,-268.822C52.1959,-258.118 55.3071,-244.118 58.0092,-231.958"/>
<polygon fill="black" stroke="black" points="61.4972,-232.397 60.2499,-221.876 54.6639,-230.878 61.4972,-232.397"/>
</g>
<!-- wait&#45;&gt;start -->
<g id="edge5" class="edge"><title>wait&#45;&gt;start</title>
<path fill="none" stroke="black" d="M70.8661,-221.831C74.9678,-232.784 79.7962,-247.494 82,-261 95.4563,-343.466 106.148,-369.317 81,-449 77.6648,-459.568 71.5541,-470.007 65.3612,-478.789"/>
<polygon fill="black" stroke="black" points="62.4331,-476.86 59.2406,-486.962 68.0362,-481.056 62.4331,-476.86"/>
</g>
<!-- configure -->
<g id="node6" class="node"><title>configure</title>
<ellipse fill="none" stroke="black" cx="64" cy="-129" rx="44.393" ry="18"/>
<text text-anchor="middle" x="64" y="-125.3" font-family="Times,serif" font-size="14.00">configure</text>
</g>
<!-- wait&#45;&gt;configure -->
<g id="edge8" class="edge"><title>wait&#45;&gt;configure</title>
<path fill="none" stroke="black" d="M58.1992,-186.069C57.274,-177.47 57.0252,-166.814 57.4527,-157.108"/>
<polygon fill="black" stroke="black" points="60.9464,-157.32 58.182,-147.092 53.9649,-156.812 60.9464,-157.32"/>
</g>
<!-- destroy -->
<g id="node7" class="node"><title>destroy</title>
<ellipse fill="none" stroke="black" cx="168" cy="-129" rx="36.2938" ry="18"/>
<text text-anchor="middle" x="168" y="-125.3" font-family="Times,serif" font-size="14.00">destroy</text>
</g>
<!-- wait&#45;&gt;destroy -->
<g id="edge6" class="edge"><title>wait&#45;&gt;destroy</title>
<path fill="none" stroke="black" d="M87.3455,-194.808C97.8018,-190.59 110,-184.88 120,-178 129.961,-171.147 139.647,-162.077 147.679,-153.669"/>
<polygon fill="black" stroke="black" points="150.346,-155.94 154.551,-146.215 145.199,-151.195 150.346,-155.94"/>
</g>
<!-- configure&#45;&gt;wait -->
<g id="edge9" class="edge"><title>configure&#45;&gt;wait</title>
<path fill="none" stroke="black" d="M69.818,-147.092C70.7348,-155.717 70.9752,-166.379 70.5393,-176.073"/>
<polygon fill="black" stroke="black" points="67.0472,-175.838 69.8008,-186.069 74.0282,-176.354 67.0472,-175.838"/>
</g>
<!-- return -->
<g id="node8" class="node"><title>return</title>
<ellipse fill="none" stroke="black" cx="168" cy="-57" rx="31.6951" ry="18"/>
<text text-anchor="middle" x="168" y="-53.3" font-family="Times,serif" font-size="14.00">return</text>
</g>
<!-- destroy&#45;&gt;return -->
<g id="edge7" class="edge"><title>destroy&#45;&gt;return</title>
<path fill="none" stroke="black" d="M168,-110.697C168,-102.983 168,-93.7125 168,-85.1124"/>
<polygon fill="black" stroke="black" points="171.5,-85.1043 168,-75.1043 164.5,-85.1044 171.5,-85.1043"/>
</g>
</g>
</svg>
