<?xml version="1.0" encoding="UTF-8" standalone="no"?>
<!DOCTYPE svg PUBLIC "-//W3C//DTD SVG 1.1//EN"
 "http://www.w3.org/Graphics/SVG/1.1/DTD/svg11.dtd">
<!-- Generated by graphviz version 2.38.0 (20140413.2041)
 -->
<!-- Title: %3 Pages: 1 -->
<svg width="231pt" height="640pt"
 viewBox="0.00 0.00 231.00 640.00" xmlns="http://www.w3.org/2000/svg" xmlns:xlink="http://www.w3.org/1999/xlink">
<g id="graph0" class="graph" transform="scale(1 1) rotate(0) translate(4 636)">
<title>%3</title>
<polygon fill="white" stroke="none" points="-4,4 -4,-636 227,-636 227,4 -4,4"/>
<text text-anchor="middle" x="111.5" y="-7.8" font-family="Times,serif" font-size="14.00">faststream states expanded</text>
<g id="clust1" class="cluster"><title>cluster_0</title>
<polygon fill="none" stroke="black" points="8,-261 8,-624 110,-624 110,-261 8,-261"/>
<text text-anchor="middle" x="59" y="-608.8" font-family="Times,serif" font-size="14.00">run</text>
</g>
<g id="clust2" class="cluster"><title>cluster_1</title>
<polygon fill="none" stroke="black" points="15,-103 15,-253 119,-253 119,-103 15,-103"/>
<text text-anchor="middle" x="67" y="-237.8" font-family="Times,serif" font-size="14.00">pause</text>
</g>
<g id="clust3" class="cluster"><title>cluster_2</title>
<polygon fill="none" stroke="black" points="127,-31 127,-178 215,-178 215,-31 127,-31"/>
<text text-anchor="middle" x="171" y="-162.8" font-family="Times,serif" font-size="14.00">exit</text>
</g>
<!-- construct -->
<g id="node1" class="node"><title>construct</title>
<ellipse fill="none" stroke="black" cx="59" cy="-575" rx="42.7926" ry="18"/>
<text text-anchor="middle" x="59" y="-571.3" font-family="Times,serif" font-size="14.00">construct</text>
</g>
<!-- start -->
<g id="node2" class="node"><title>start</title>
<ellipse fill="none" stroke="black" cx="52" cy="-503" rx="27" ry="18"/>
<text text-anchor="middle" x="52" y="-499.3" font-family="Times,serif" font-size="14.00">start</text>
</g>
<!-- construct&#45;&gt;start -->
<g id="edge1" class="edge"><title>construct&#45;&gt;start</title>
<path fill="none" stroke="black" d="M57.2697,-556.697C56.4983,-548.983 55.5712,-539.712 54.7112,-531.112"/>
<polygon fill="black" stroke="black" points="58.1882,-530.706 53.7104,-521.104 51.2229,-531.403 58.1882,-530.706"/>
</g>
<!-- flow -->
<g id="node3" class="node"><title>flow</title>
<ellipse fill="none" stroke="black" cx="51" cy="-431" rx="27" ry="18"/>
<text text-anchor="middle" x="51" y="-427.3" font-family="Times,serif" font-size="14.00">flow</text>
</g>
<!-- start&#45;&gt;flow -->
<g id="edge2" class="edge"><title>start&#45;&gt;flow</title>
<path fill="none" stroke="black" d="M51.7528,-484.697C51.6426,-476.983 51.5102,-467.712 51.3873,-459.112"/>
<polygon fill="black" stroke="black" points="54.8869,-459.053 51.2443,-449.104 47.8876,-459.153 54.8869,-459.053"/>
</g>
<!-- flush -->
<g id="node4" class="node"><title>flush</title>
<ellipse fill="none" stroke="black" cx="51" cy="-359" rx="28.6953" ry="18"/>
<text text-anchor="middle" x="51" y="-355.3" font-family="Times,serif" font-size="14.00">flush</text>
</g>
<!-- flow&#45;&gt;flush -->
<g id="edge3" class="edge"><title>flow&#45;&gt;flush</title>
<path fill="none" stroke="black" d="M51,-412.697C51,-404.983 51,-395.712 51,-387.112"/>
<polygon fill="black" stroke="black" points="54.5001,-387.104 51,-377.104 47.5001,-387.104 54.5001,-387.104"/>
</g>
<!-- stop -->
<g id="node5" class="node"><title>stop</title>
<ellipse fill="none" stroke="black" cx="52" cy="-287" rx="27" ry="18"/>
<text text-anchor="middle" x="52" y="-283.3" font-family="Times,serif" font-size="14.00">stop</text>
</g>
<!-- flush&#45;&gt;stop -->
<g id="edge4" class="edge"><title>flush&#45;&gt;stop</title>
<path fill="none" stroke="black" d="M51.2472,-340.697C51.3574,-332.983 51.4898,-323.712 51.6127,-315.112"/>
<polygon fill="black" stroke="black" points="55.1124,-315.153 51.7557,-305.104 48.1131,-315.053 55.1124,-315.153"/>
</g>
<!-- wait -->
<g id="node6" class="node"><title>wait</title>
<ellipse fill="none" stroke="black" cx="67" cy="-204" rx="27" ry="18"/>
<text text-anchor="middle" x="67" y="-200.3" font-family="Times,serif" font-size="14.00">wait</text>
</g>
<!-- stop&#45;&gt;wait -->
<g id="edge5" class="edge"><title>stop&#45;&gt;wait</title>
<path fill="none" stroke="black" d="M55.1811,-268.822C57.1499,-258.19 59.7211,-244.306 61.9623,-232.204"/>
<polygon fill="black" stroke="black" points="65.444,-232.623 63.8235,-222.153 58.561,-231.349 65.444,-232.623"/>
</g>
<!-- wait&#45;&gt;construct -->
<g id="edge6" class="edge"><title>wait&#45;&gt;construct</title>
<path fill="none" stroke="black" d="M74.52,-221.59C86.3564,-249.26 108,-306.851 108,-358 108,-432 108,-432 108,-432 108,-472.542 102.314,-483.069 88,-521 84.4645,-530.369 79.5328,-540.12 74.738,-548.667"/>
<polygon fill="black" stroke="black" points="71.6651,-546.989 69.6614,-557.392 77.7156,-550.509 71.6651,-546.989"/>
</g>
<!-- configure -->
<g id="node7" class="node"><title>configure</title>
<ellipse fill="none" stroke="black" cx="67" cy="-129" rx="44.393" ry="18"/>
<text text-anchor="middle" x="67" y="-125.3" font-family="Times,serif" font-size="14.00">configure</text>
</g>
<!-- wait&#45;&gt;configure -->
<g id="edge9" class="edge"><title>wait&#45;&gt;configure</title>
<path fill="none" stroke="black" d="M61.1992,-186.069C60.274,-177.47 60.0252,-166.814 60.4527,-157.108"/>
<polygon fill="black" stroke="black" points="63.9464,-157.32 61.182,-147.092 56.9649,-156.812 63.9464,-157.32"/>
</g>
<!-- destroy -->
<g id="node8" class="node"><title>destroy</title>
<ellipse fill="none" stroke="black" cx="171" cy="-129" rx="36.2938" ry="18"/>
<text text-anchor="middle" x="171" y="-125.3" font-family="Times,serif" font-size="14.00">destroy</text>
</g>
<!-- wait&#45;&gt;destroy -->
<g id="edge7" class="edge"><title>wait&#45;&gt;destroy</title>
<path fill="none" stroke="black" d="M90.3455,-194.808C100.802,-190.59 113,-184.88 123,-178 132.961,-171.147 142.647,-162.077 150.679,-153.669"/>
<polygon fill="black" stroke="black" points="153.346,-155.94 157.551,-146.215 148.199,-151.195 153.346,-155.94"/>
</g>
<!-- configure&#45;&gt;wait -->
<g id="edge10" class="edge"><title>configure&#45;&gt;wait</title>
<path fill="none" stroke="black" d="M72.818,-147.092C73.7348,-155.717 73.9752,-166.379 73.5393,-176.073"/>
<polygon fill="black" stroke="black" points="70.0472,-175.838 72.8008,-186.069 77.0282,-176.354 70.0472,-175.838"/>
</g>
<!-- return -->
<g id="node9" class="node"><title>return</title>
<ellipse fill="none" stroke="black" cx="171" cy="-57" rx="31.6951" ry="18"/>
<text text-anchor="middle" x="171" y="-53.3" font-family="Times,serif" font-size="14.00">return</text>
</g>
<!-- destroy&#45;&gt;return -->
<g id="edge8" class="edge"><title>destroy&#45;&gt;return</title>
<path fill="none" stroke="black" d="M171,-110.697C171,-102.983 171,-93.7125 171,-85.1124"/>
<polygon fill="black" stroke="black" points="174.5,-85.1043 171,-75.1043 167.5,-85.1044 174.5,-85.1043"/>
</g>
</g>
</svg>
