<?xml version="1.0" encoding="UTF-8" standalone="no"?>
<!DOCTYPE svg PUBLIC "-//W3C//DTD SVG 1.1//EN"
 "http://www.w3.org/Graphics/SVG/1.1/DTD/svg11.dtd">
<!-- Generated by graphviz version 2.38.0 (20140413.2041)
 -->
<!-- Title: %3 Pages: 1 -->
<svg width="258pt" height="568pt"
 viewBox="0.00 0.00 258.00 568.00" xmlns="http://www.w3.org/2000/svg" xmlns:xlink="http://www.w3.org/1999/xlink">
<g id="graph0" class="graph" transform="scale(1 1) rotate(0) translate(4 564)">
<title>%3</title>
<polygon fill="white" stroke="none" points="-4,4 -4,-564 254,-564 254,4 -4,4"/>
<text text-anchor="middle" x="125" y="-7.8" font-family="Times,serif" font-size="14.00">faststream states expanded</text>
<g id="clust1" class="cluster"><title>cluster_0</title>
<polygon fill="none" stroke="black" points="8,-261 8,-552 102,-552 102,-261 8,-261"/>
<text text-anchor="middle" x="55" y="-536.8" font-family="Times,serif" font-size="14.00">run</text>
</g>
<g id="clust2" class="cluster"><title>cluster_1</title>
<polygon fill="none" stroke="black" points="42,-103 42,-253 146,-253 146,-103 42,-103"/>
<text text-anchor="middle" x="94" y="-237.8" font-family="Times,serif" font-size="14.00">pause</text>
</g>
<g id="clust3" class="cluster"><title>cluster_2</title>
<polygon fill="none" stroke="black" points="154,-31 154,-178 242,-178 242,-31 154,-31"/>
<text text-anchor="middle" x="198" y="-162.8" font-family="Times,serif" font-size="14.00">exit</text>
</g>
<!-- start -->
<g id="node1" class="node"><title>start</title>
<ellipse fill="none" stroke="black" cx="67" cy="-503" rx="27" ry="18"/>
<text text-anchor="middle" x="67" y="-499.3" font-family="Times,serif" font-size="14.00">start</text>
</g>
<!-- flow -->
<g id="node2" class="node"><title>flow</title>
<ellipse fill="none" stroke="black" cx="67" cy="-431" rx="27" ry="18"/>
<text text-anchor="middle" x="67" y="-427.3" font-family="Times,serif" font-size="14.00">flow</text>
</g>
<!-- start&#45;&gt;flow -->
<g id="edge1" class="edge"><title>start&#45;&gt;flow</title>
<path fill="none" stroke="black" d="M67,-484.697C67,-476.983 67,-467.712 67,-459.112"/>
<polygon fill="black" stroke="black" points="70.5001,-459.104 67,-449.104 63.5001,-459.104 70.5001,-459.104"/>
</g>
<!-- flush -->
<g id="node3" class="node"><title>flush</title>
<ellipse fill="none" stroke="black" cx="45" cy="-359" rx="28.6953" ry="18"/>
<text text-anchor="middle" x="45" y="-355.3" font-family="Times,serif" font-size="14.00">flush</text>
</g>
<!-- flow&#45;&gt;flush -->
<g id="edge2" class="edge"><title>flow&#45;&gt;flush</title>
<path fill="none" stroke="black" d="M61.6744,-413.055C59.1613,-405.059 56.104,-395.331 53.297,-386.4"/>
<polygon fill="black" stroke="black" points="56.6139,-385.28 50.2765,-376.789 49.9359,-387.378 56.6139,-385.28"/>
</g>
<!-- stop -->
<g id="node4" class="node"><title>stop</title>
<ellipse fill="none" stroke="black" cx="67" cy="-287" rx="27" ry="18"/>
<text text-anchor="middle" x="67" y="-283.3" font-family="Times,serif" font-size="14.00">stop</text>
</g>
<!-- flow&#45;&gt;stop -->
<g id="edge3" class="edge"><title>flow&#45;&gt;stop</title>
<path fill="none" stroke="black" d="M73.4861,-413.104C77.0774,-402.835 81.1749,-389.361 83,-377 85.3371,-361.172 85.3371,-356.828 83,-341 81.7024,-332.212 79.2564,-322.862 76.6602,-314.5"/>
<polygon fill="black" stroke="black" points="79.9473,-313.292 73.4861,-304.896 73.3009,-315.489 79.9473,-313.292"/>
</g>
<!-- flush&#45;&gt;stop -->
<g id="edge4" class="edge"><title>flush&#45;&gt;stop</title>
<path fill="none" stroke="black" d="M50.3256,-341.055C52.8387,-333.059 55.896,-323.331 58.703,-314.4"/>
<polygon fill="black" stroke="black" points="62.0641,-315.378 61.7235,-304.789 55.3861,-313.28 62.0641,-315.378"/>
</g>
<!-- wait -->
<g id="node5" class="node"><title>wait</title>
<ellipse fill="none" stroke="black" cx="94" cy="-204" rx="27" ry="18"/>
<text text-anchor="middle" x="94" y="-200.3" font-family="Times,serif" font-size="14.00">wait</text>
</g>
<!-- stop&#45;&gt;wait -->
<g id="edge5" class="edge"><title>stop&#45;&gt;wait</title>
<path fill="none" stroke="black" d="M72.5944,-269.217C76.2146,-258.356 81.0059,-243.982 85.1375,-231.587"/>
<polygon fill="black" stroke="black" points="88.5708,-232.355 88.4127,-221.762 81.93,-230.142 88.5708,-232.355"/>
</g>
<!-- wait&#45;&gt;start -->
<g id="edge6" class="edge"><title>wait&#45;&gt;start</title>
<path fill="none" stroke="black" d="M98.3919,-222.065C108.014,-262.552 128.168,-367.155 103,-449 99.7142,-459.685 93.4601,-470.149 87.0746,-478.919"/>
<polygon fill="black" stroke="black" points="84.1156,-477.023 80.7504,-487.069 89.646,-481.314 84.1156,-477.023"/>
</g>
<!-- configure -->
<g id="node6" class="node"><title>configure</title>
<ellipse fill="none" stroke="black" cx="94" cy="-129" rx="44.393" ry="18"/>
<text text-anchor="middle" x="94" y="-125.3" font-family="Times,serif" font-size="14.00">configure</text>
</g>
<!-- wait&#45;&gt;configure -->
<g id="edge9" class="edge"><title>wait&#45;&gt;configure</title>
<path fill="none" stroke="black" d="M88.1992,-186.069C87.274,-177.47 87.0252,-166.814 87.4527,-157.108"/>
<polygon fill="black" stroke="black" points="90.9464,-157.32 88.182,-147.092 83.9649,-156.812 90.9464,-157.32"/>
</g>
<!-- destroy -->
<g id="node7" class="node"><title>destroy</title>
<ellipse fill="none" stroke="black" cx="198" cy="-129" rx="36.2938" ry="18"/>
<text text-anchor="middle" x="198" y="-125.3" font-family="Times,serif" font-size="14.00">destroy</text>
</g>
<!-- wait&#45;&gt;destroy -->
<g id="edge7" class="edge"><title>wait&#45;&gt;destroy</title>
<path fill="none" stroke="black" d="M117.346,-194.808C127.802,-190.59 140,-184.88 150,-178 159.961,-171.147 169.647,-162.077 177.679,-153.669"/>
<polygon fill="black" stroke="black" points="180.346,-155.94 184.551,-146.215 175.199,-151.195 180.346,-155.94"/>
</g>
<!-- configure&#45;&gt;wait -->
<g id="edge10" class="edge"><title>configure&#45;&gt;wait</title>
<path fill="none" stroke="black" d="M99.818,-147.092C100.735,-155.717 100.975,-166.379 100.539,-176.073"/>
<polygon fill="black" stroke="black" points="97.0472,-175.838 99.8008,-186.069 104.028,-176.354 97.0472,-175.838"/>
</g>
<!-- return -->
<g id="node8" class="node"><title>return</title>
<ellipse fill="none" stroke="black" cx="198" cy="-57" rx="31.6951" ry="18"/>
<text text-anchor="middle" x="198" y="-53.3" font-family="Times,serif" font-size="14.00">return</text>
</g>
<!-- destroy&#45;&gt;return -->
<g id="edge8" class="edge"><title>destroy&#45;&gt;return</title>
<path fill="none" stroke="black" d="M198,-110.697C198,-102.983 198,-93.7125 198,-85.1124"/>
<polygon fill="black" stroke="black" points="201.5,-85.1043 198,-75.1043 194.5,-85.1044 201.5,-85.1043"/>
</g>
</g>
</svg>
