<?xml version="1.0" encoding="UTF-8" standalone="no"?>
<!DOCTYPE svg PUBLIC "-//W3C//DTD SVG 1.1//EN"
 "http://www.w3.org/Graphics/SVG/1.1/DTD/svg11.dtd">
<!-- Generated by graphviz version 2.40.1 (20161225.0304)
 -->
<!-- Title: %3 Pages: 1 -->
<svg width="258pt" height="568pt"
 viewBox="0.00 0.00 258.00 568.00" xmlns="http://www.w3.org/2000/svg" xmlns:xlink="http://www.w3.org/1999/xlink">
<g id="graph0" class="graph" transform="scale(1 1) rotate(0) translate(4 564)">
<title>%3</title>
<polygon fill="#ffffff" stroke="transparent" points="-4,4 -4,-564 254,-564 254,4 -4,4"/>
<text text-anchor="middle" x="125" y="-7.8" font-family="Times,serif" font-size="14.00" fill="#000000">quickstream states expanded</text>
<g id="clust1" class="cluster">
<title>cluster_0</title>
<polygon fill="none" stroke="#000000" points="8,-261 8,-552 102,-552 102,-261 8,-261"/>
<text text-anchor="middle" x="55" y="-536.8" font-family="Times,serif" font-size="14.00" fill="#000000">run</text>
</g>
<g id="clust2" class="cluster">
<title>cluster_1</title>
<polygon fill="none" stroke="#000000" points="42,-103 42,-253 146,-253 146,-103 42,-103"/>
<text text-anchor="middle" x="94" y="-237.8" font-family="Times,serif" font-size="14.00" fill="#000000">pause</text>
</g>
<g id="clust3" class="cluster">
<title>cluster_2</title>
<polygon fill="none" stroke="#000000" points="154,-31 154,-178 242,-178 242,-31 154,-31"/>
<text text-anchor="middle" x="198" y="-162.8" font-family="Times,serif" font-size="14.00" fill="#000000">exit</text>
</g>
<!-- start -->
<g id="node1" class="node">
<title>start</title>
<ellipse fill="none" stroke="#000000" cx="58" cy="-503" rx="27" ry="18"/>
<text text-anchor="middle" x="58" y="-499.3" font-family="Times,serif" font-size="14.00" fill="#000000">start</text>
</g>
<!-- flow -->
<g id="node2" class="node">
<title>flow</title>
<ellipse fill="none" stroke="#000000" cx="49" cy="-431" rx="27" ry="18"/>
<text text-anchor="middle" x="49" y="-427.3" font-family="Times,serif" font-size="14.00" fill="#000000">flow</text>
</g>
<!-- start&#45;&gt;flow -->
<g id="edge1" class="edge">
<title>start&#45;&gt;flow</title>
<path fill="none" stroke="#000000" d="M55.7289,-484.8314C54.7664,-477.131 53.6218,-467.9743 52.5521,-459.4166"/>
<polygon fill="#000000" stroke="#000000" points="56.0151,-458.9019 51.3017,-449.4133 49.0691,-459.7702 56.0151,-458.9019"/>
</g>
<!-- flow&#45;&gt;flow -->
<g id="edge2" class="edge">
<title>flow&#45;&gt;flow</title>
<path fill="none" stroke="#000000" d="M68.895,-443.4321C81.688,-446.6753 94,-442.5313 94,-431 94,-422.6218 87.5006,-418.1433 79.0395,-417.5644"/>
<polygon fill="#000000" stroke="#000000" points="78.5019,-414.1004 68.895,-418.5679 79.191,-421.0665 78.5019,-414.1004"/>
</g>
<!-- flush -->
<g id="node3" class="node">
<title>flush</title>
<ellipse fill="none" stroke="#000000" cx="45" cy="-359" rx="28.6953" ry="18"/>
<text text-anchor="middle" x="45" y="-355.3" font-family="Times,serif" font-size="14.00" fill="#000000">flush</text>
</g>
<!-- flow&#45;&gt;flush -->
<g id="edge3" class="edge">
<title>flow&#45;&gt;flush</title>
<path fill="none" stroke="#000000" d="M47.9906,-412.8314C47.5628,-405.131 47.0541,-395.9743 46.5787,-387.4166"/>
<polygon fill="#000000" stroke="#000000" points="50.0724,-387.2037 46.023,-377.4133 43.0831,-387.592 50.0724,-387.2037"/>
</g>
<!-- stop -->
<g id="node4" class="node">
<title>stop</title>
<ellipse fill="none" stroke="#000000" cx="67" cy="-287" rx="27" ry="18"/>
<text text-anchor="middle" x="67" y="-283.3" font-family="Times,serif" font-size="14.00" fill="#000000">stop</text>
</g>
<!-- flow&#45;&gt;stop -->
<g id="edge4" class="edge">
<title>flow&#45;&gt;stop</title>
<path fill="none" stroke="#000000" d="M62.3494,-415.1546C70.0323,-404.9681 78.9452,-391.0502 83,-377 88.987,-356.2548 84.091,-332.1394 78.1888,-314.0956"/>
<polygon fill="#000000" stroke="#000000" points="81.4237,-312.7465 74.7709,-304.5008 74.8296,-315.0955 81.4237,-312.7465"/>
</g>
<!-- flush&#45;&gt;stop -->
<g id="edge5" class="edge">
<title>flush&#45;&gt;stop</title>
<path fill="none" stroke="#000000" d="M50.4382,-341.2022C52.8974,-333.1541 55.8598,-323.4588 58.5952,-314.5067"/>
<polygon fill="#000000" stroke="#000000" points="61.9731,-315.4289 61.5481,-304.8425 55.2786,-313.3833 61.9731,-315.4289"/>
</g>
<!-- wait -->
<g id="node5" class="node">
<title>wait</title>
<ellipse fill="none" stroke="#000000" cx="94" cy="-204" rx="27" ry="18"/>
<text text-anchor="middle" x="94" y="-200.3" font-family="Times,serif" font-size="14.00" fill="#000000">wait</text>
</g>
<!-- stop&#45;&gt;wait -->
<g id="edge6" class="edge">
<title>stop&#45;&gt;wait</title>
<path fill="none" stroke="#000000" d="M72.726,-269.3978C76.3171,-258.3587 81.0214,-243.8973 85.0929,-231.3811"/>
<polygon fill="#000000" stroke="#000000" points="88.424,-232.4552 88.1892,-221.8629 81.7673,-230.2897 88.424,-232.4552"/>
</g>
<!-- wait&#45;&gt;start -->
<g id="edge7" class="edge">
<title>wait&#45;&gt;start</title>
<path fill="none" stroke="#000000" d="M99.1007,-221.9277C109.9661,-263.3996 132.1242,-368.5575 103,-449 98.6301,-461.0699 90.254,-472.3378 81.9016,-481.425"/>
<polygon fill="#000000" stroke="#000000" points="79.1624,-479.2199 74.669,-488.8148 84.1651,-484.1162 79.1624,-479.2199"/>
</g>
<!-- configure -->
<g id="node6" class="node">
<title>configure</title>
<ellipse fill="none" stroke="#000000" cx="94" cy="-129" rx="44.393" ry="18"/>
<text text-anchor="middle" x="94" y="-125.3" font-family="Times,serif" font-size="14.00" fill="#000000">configure</text>
</g>
<!-- wait&#45;&gt;configure -->
<g id="edge10" class="edge">
<title>wait&#45;&gt;configure</title>
<path fill="none" stroke="#000000" d="M88.1601,-186.226C87.2723,-177.5098 87.034,-166.8058 87.4454,-157.0228"/>
<polygon fill="#000000" stroke="#000000" points="90.9466,-157.1244 88.1467,-146.9063 83.9634,-156.6403 90.9466,-157.1244"/>
</g>
<!-- destroy -->
<g id="node7" class="node">
<title>destroy</title>
<ellipse fill="none" stroke="#000000" cx="198" cy="-129" rx="36.2938" ry="18"/>
<text text-anchor="middle" x="198" y="-125.3" font-family="Times,serif" font-size="14.00" fill="#000000">destroy</text>
</g>
<!-- wait&#45;&gt;destroy -->
<g id="edge8" class="edge">
<title>wait&#45;&gt;destroy</title>
<path fill="none" stroke="#000000" d="M117.6398,-195.2687C128.038,-190.8753 140.1082,-184.9903 150,-178 159.8286,-171.0544 169.3777,-161.9562 177.3362,-153.4874"/>
<polygon fill="#000000" stroke="#000000" points="180.0325,-155.7244 184.1603,-145.9667 174.8485,-151.0205 180.0325,-155.7244"/>
</g>
<!-- configure&#45;&gt;wait -->
<g id="edge11" class="edge">
<title>configure&#45;&gt;wait</title>
<path fill="none" stroke="#000000" d="M99.8533,-146.9063C100.7346,-155.6426 100.9663,-166.3518 100.5484,-176.1255"/>
<polygon fill="#000000" stroke="#000000" points="97.0482,-176.0056 99.8399,-186.226 104.0311,-176.4955 97.0482,-176.0056"/>
</g>
<!-- return -->
<g id="node8" class="node">
<title>return</title>
<ellipse fill="none" stroke="#000000" cx="198" cy="-57" rx="31.6951" ry="18"/>
<text text-anchor="middle" x="198" y="-53.3" font-family="Times,serif" font-size="14.00" fill="#000000">return</text>
</g>
<!-- destroy&#45;&gt;return -->
<g id="edge9" class="edge">
<title>destroy&#45;&gt;return</title>
<path fill="none" stroke="#000000" d="M198,-110.8314C198,-103.131 198,-93.9743 198,-85.4166"/>
<polygon fill="#000000" stroke="#000000" points="201.5001,-85.4132 198,-75.4133 194.5001,-85.4133 201.5001,-85.4132"/>
</g>
</g>
</svg>
