<?xml version="1.0" encoding="UTF-8" standalone="no"?>
<!DOCTYPE svg PUBLIC "-//W3C//DTD SVG 1.1//EN"
 "http://www.w3.org/Graphics/SVG/1.1/DTD/svg11.dtd">
<!-- Generated by graphviz version 2.38.0 (20140413.2041)
 -->
<!-- Title: %3 Pages: 1 -->
<svg width="188pt" height="493pt"
 viewBox="0.00 0.00 188.00 493.00" xmlns="http://www.w3.org/2000/svg" xmlns:xlink="http://www.w3.org/1999/xlink">
<g id="graph0" class="graph" transform="scale(1 1) rotate(0) translate(4 489)">
<title>%3</title>
<polygon fill="white" stroke="none" points="-4,4 -4,-489 184,-489 184,4 -4,4"/>
<text text-anchor="middle" x="90" y="-7.8" font-family="Times,serif" font-size="14.00">faststream states expanded</text>
<g id="clust1" class="cluster"><title>cluster_0</title>
<polygon fill="none" stroke="black" points="8,-186 8,-477 82,-477 82,-186 8,-186"/>
<text text-anchor="middle" x="45" y="-461.8" font-family="Times,serif" font-size="14.00">run</text>
</g>
<g id="clust2" class="cluster"><title>cluster_1</title>
<polygon fill="none" stroke="black" points="12,-31 12,-178 116,-178 116,-31 12,-31"/>
<text text-anchor="middle" x="64" y="-162.8" font-family="Times,serif" font-size="14.00">pause</text>
</g>
<!-- start -->
<g id="node1" class="node"><title>start</title>
<ellipse fill="none" stroke="black" cx="46" cy="-428" rx="27" ry="18"/>
<text text-anchor="middle" x="46" y="-424.3" font-family="Times,serif" font-size="14.00">start</text>
</g>
<!-- flow -->
<g id="node2" class="node"><title>flow</title>
<ellipse fill="none" stroke="black" cx="45" cy="-356" rx="27" ry="18"/>
<text text-anchor="middle" x="45" y="-352.3" font-family="Times,serif" font-size="14.00">flow</text>
</g>
<!-- start&#45;&gt;flow -->
<g id="edge1" class="edge"><title>start&#45;&gt;flow</title>
<path fill="none" stroke="black" d="M45.7528,-409.697C45.6426,-401.983 45.5102,-392.712 45.3873,-384.112"/>
<polygon fill="black" stroke="black" points="48.8869,-384.053 45.2443,-374.104 41.8876,-384.153 48.8869,-384.053"/>
</g>
<!-- flush -->
<g id="node3" class="node"><title>flush</title>
<ellipse fill="none" stroke="black" cx="45" cy="-284" rx="28.6953" ry="18"/>
<text text-anchor="middle" x="45" y="-280.3" font-family="Times,serif" font-size="14.00">flush</text>
</g>
<!-- flow&#45;&gt;flush -->
<g id="edge2" class="edge"><title>flow&#45;&gt;flush</title>
<path fill="none" stroke="black" d="M45,-337.697C45,-329.983 45,-320.712 45,-312.112"/>
<polygon fill="black" stroke="black" points="48.5001,-312.104 45,-302.104 41.5001,-312.104 48.5001,-312.104"/>
</g>
<!-- stop -->
<g id="node4" class="node"><title>stop</title>
<ellipse fill="none" stroke="black" cx="46" cy="-212" rx="27" ry="18"/>
<text text-anchor="middle" x="46" y="-208.3" font-family="Times,serif" font-size="14.00">stop</text>
</g>
<!-- flush&#45;&gt;stop -->
<g id="edge3" class="edge"><title>flush&#45;&gt;stop</title>
<path fill="none" stroke="black" d="M45.2472,-265.697C45.3574,-257.983 45.4898,-248.712 45.6127,-240.112"/>
<polygon fill="black" stroke="black" points="49.1124,-240.153 45.7557,-230.104 42.1131,-240.053 49.1124,-240.153"/>
</g>
<!-- wait -->
<g id="node5" class="node"><title>wait</title>
<ellipse fill="none" stroke="black" cx="64" cy="-129" rx="27" ry="18"/>
<text text-anchor="middle" x="64" y="-125.3" font-family="Times,serif" font-size="14.00">wait</text>
</g>
<!-- stop&#45;&gt;wait -->
<g id="edge4" class="edge"><title>stop&#45;&gt;wait</title>
<path fill="none" stroke="black" d="M49.8173,-193.822C52.1959,-183.118 55.3071,-169.118 58.0092,-156.958"/>
<polygon fill="black" stroke="black" points="61.4972,-157.397 60.2499,-146.876 54.6639,-155.878 61.4972,-157.397"/>
</g>
<!-- wait&#45;&gt;start -->
<g id="edge5" class="edge"><title>wait&#45;&gt;start</title>
<path fill="none" stroke="black" d="M70.8661,-146.831C74.9678,-157.784 79.7962,-172.494 82,-186 95.4563,-268.466 106.148,-294.317 81,-374 77.6648,-384.568 71.5541,-395.007 65.3612,-403.789"/>
<polygon fill="black" stroke="black" points="62.4331,-401.86 59.2406,-411.962 68.0362,-406.056 62.4331,-401.86"/>
</g>
<!-- configure -->
<g id="node6" class="node"><title>configure</title>
<ellipse fill="none" stroke="black" cx="64" cy="-57" rx="44.393" ry="18"/>
<text text-anchor="middle" x="64" y="-53.3" font-family="Times,serif" font-size="14.00">configure</text>
</g>
<!-- wait&#45;&gt;configure -->
<g id="edge7" class="edge"><title>wait&#45;&gt;configure</title>
<path fill="none" stroke="black" d="M58.1601,-111.411C57.2975,-103.507 57.0481,-93.8518 57.4119,-84.9352"/>
<polygon fill="black" stroke="black" points="60.9033,-85.1791 58.1206,-74.9562 53.9209,-84.6831 60.9033,-85.1791"/>
</g>
<!-- exit -->
<g id="node7" class="node"><title>exit</title>
<ellipse fill="none" stroke="black" cx="153" cy="-57" rx="27" ry="18"/>
<text text-anchor="middle" x="153" y="-53.3" font-family="Times,serif" font-size="14.00">exit</text>
</g>
<!-- wait&#45;&gt;exit -->
<g id="edge6" class="edge"><title>wait&#45;&gt;exit</title>
<path fill="none" stroke="black" d="M80.7402,-114.834C94.0808,-104.341 112.963,-89.4895 128.08,-77.5997"/>
<polygon fill="black" stroke="black" points="130.336,-80.2786 136.032,-71.3454 126.008,-74.7765 130.336,-80.2786"/>
</g>
<!-- configure&#45;&gt;wait -->
<g id="edge8" class="edge"><title>configure&#45;&gt;wait</title>
<path fill="none" stroke="black" d="M69.8794,-74.9562C70.7139,-82.8272 70.9485,-92.3739 70.5831,-101.187"/>
<polygon fill="black" stroke="black" points="67.0742,-101.184 69.8399,-111.411 74.0558,-101.691 67.0742,-101.184"/>
</g>
</g>
</svg>
