<?xml version="1.0" encoding="UTF-8" standalone="no"?>
<!DOCTYPE svg PUBLIC "-//W3C//DTD SVG 1.1//EN"
 "http://www.w3.org/Graphics/SVG/1.1/DTD/svg11.dtd">
<!-- Generated by graphviz version 2.38.0 (20140413.2041)
 -->
<!-- Title: %3 Pages: 1 -->
<svg width="138pt" height="139pt"
 viewBox="0.00 0.00 137.55 139.00" xmlns="http://www.w3.org/2000/svg" xmlns:xlink="http://www.w3.org/1999/xlink">
<g id="graph0" class="graph" transform="scale(1 1) rotate(0) translate(4 135)">
<title>%3</title>
<polygon fill="white" stroke="none" points="-4,4 -4,-135 133.547,-135 133.547,4 -4,4"/>
<text text-anchor="middle" x="64.7736" y="-7.8" font-family="Times,serif" font-size="14.00">faststream states</text>
<!-- pause -->
<g id="node1" class="node"><title>pause</title>
<ellipse fill="none" stroke="black" cx="30.5473" cy="-113" rx="30.5947" ry="18"/>
<text text-anchor="middle" x="30.5473" y="-109.3" font-family="Times,serif" font-size="14.00">pause</text>
</g>
<!-- run -->
<g id="node2" class="node"><title>run</title>
<ellipse fill="none" stroke="black" cx="30.5473" cy="-41" rx="27" ry="18"/>
<text text-anchor="middle" x="30.5473" y="-37.3" font-family="Times,serif" font-size="14.00">run</text>
</g>
<!-- pause&#45;&gt;run -->
<g id="edge1" class="edge"><title>pause&#45;&gt;run</title>
<path fill="none" stroke="black" d="M24.6691,-95.055C23.8388,-87.2306 23.6016,-77.7484 23.9575,-68.9768"/>
<polygon fill="black" stroke="black" points="27.4637,-69.0131 24.6857,-58.789 20.4815,-68.514 27.4637,-69.0131"/>
</g>
<!-- exit -->
<g id="node3" class="node"><title>exit</title>
<ellipse fill="none" stroke="black" cx="102.547" cy="-41" rx="27" ry="18"/>
<text text-anchor="middle" x="102.547" y="-37.3" font-family="Times,serif" font-size="14.00">exit</text>
</g>
<!-- pause&#45;&gt;exit -->
<g id="edge3" class="edge"><title>pause&#45;&gt;exit</title>
<path fill="none" stroke="black" d="M45.8166,-97.1548C55.8784,-87.3725 69.2177,-74.4037 80.4334,-63.4996"/>
<polygon fill="black" stroke="black" points="83.0622,-65.8253 87.7924,-56.345 78.1826,-60.8064 83.0622,-65.8253"/>
</g>
<!-- run&#45;&gt;pause -->
<g id="edge2" class="edge"><title>run&#45;&gt;pause</title>
<path fill="none" stroke="black" d="M36.4089,-58.789C37.2471,-66.5912 37.4921,-76.067 37.1441,-84.8479"/>
<polygon fill="black" stroke="black" points="33.6366,-84.8338 36.4255,-95.055 40.6193,-85.3255 33.6366,-84.8338"/>
</g>
</g>
</svg>
