<?xml version="1.0" encoding="UTF-8" standalone="no"?>
<!DOCTYPE svg PUBLIC "-//W3C//DTD SVG 1.1//EN"
 "http://www.w3.org/Graphics/SVG/1.1/DTD/svg11.dtd">
<!-- Generated by graphviz version 2.40.1 (20161225.0304)
 -->
<!-- Title: %3 Pages: 1 -->
<svg width="138pt" height="139pt"
 viewBox="0.00 0.00 137.55 139.00" xmlns="http://www.w3.org/2000/svg" xmlns:xlink="http://www.w3.org/1999/xlink">
<g id="graph0" class="graph" transform="scale(1 1) rotate(0) translate(4 135)">
<title>%3</title>
<polygon fill="#ffffff" stroke="transparent" points="-4,4 -4,-135 133.5473,-135 133.5473,4 -4,4"/>
<text text-anchor="middle" x="64.7736" y="-7.8" font-family="Times,serif" font-size="14.00" fill="#000000">quickstream states</text>
<!-- pause -->
<g id="node1" class="node">
<title>pause</title>
<ellipse fill="none" stroke="#000000" cx="30.5473" cy="-113" rx="30.5947" ry="18"/>
<text text-anchor="middle" x="30.5473" y="-109.3" font-family="Times,serif" font-size="14.00" fill="#000000">pause</text>
</g>
<!-- run -->
<g id="node2" class="node">
<title>run</title>
<ellipse fill="none" stroke="#000000" cx="30.5473" cy="-41" rx="27" ry="18"/>
<text text-anchor="middle" x="30.5473" y="-37.3" font-family="Times,serif" font-size="14.00" fill="#000000">run</text>
</g>
<!-- pause&#45;&gt;run -->
<g id="edge1" class="edge">
<title>pause&#45;&gt;run</title>
<path fill="none" stroke="#000000" d="M24.6316,-95.2022C23.8271,-87.1807 23.6044,-77.5231 23.9635,-68.5957"/>
<polygon fill="#000000" stroke="#000000" points="27.457,-68.8099 24.6523,-58.593 20.4735,-68.3289 27.457,-68.8099"/>
</g>
<!-- exit -->
<g id="node3" class="node">
<title>exit</title>
<ellipse fill="none" stroke="#000000" cx="102.5473" cy="-41" rx="27" ry="18"/>
<text text-anchor="middle" x="102.5473" y="-37.3" font-family="Times,serif" font-size="14.00" fill="#000000">exit</text>
</g>
<!-- pause&#45;&gt;exit -->
<g id="edge3" class="edge">
<title>pause&#45;&gt;exit</title>
<path fill="none" stroke="#000000" d="M46.1702,-97.3771C56.117,-87.4302 69.1585,-74.3888 80.1926,-63.3547"/>
<polygon fill="#000000" stroke="#000000" points="82.852,-65.645 87.4482,-56.099 77.9023,-60.6953 82.852,-65.645"/>
</g>
<!-- run&#45;&gt;pause -->
<g id="edge2" class="edge">
<title>run&#45;&gt;pause</title>
<path fill="none" stroke="#000000" d="M36.4423,-58.593C37.2567,-66.5865 37.4893,-76.2363 37.1401,-85.1759"/>
<polygon fill="#000000" stroke="#000000" points="33.6449,-84.9891 36.463,-95.2022 40.6289,-85.4608 33.6449,-84.9891"/>
</g>
</g>
</svg>
